<svg width="32" height="32" viewBox="0 0 32 32" fill="none" xmlns="http://www.w3.org/2000/svg">
<path d="M31.3709 19.7078C29.2439 28.209 20.6024 33.3822 12.0699 31.2627C3.54143 29.1432 -1.65072 20.5325 0.476801 12.0318C2.60283 3.5296 11.2438 -1.6446 19.7738 0.47487C28.3058 2.59434 33.4974 11.2061 31.3704 19.7078H31.3709Z" fill="#F7931A"/>
<path d="M22.9452 13.6083C23.2618 11.4968 21.6483 10.3617 19.4422 9.60446L20.1578 6.74412L18.41 6.31021L17.7133 9.09517C17.2544 8.98111 16.7826 8.8735 16.3138 8.76689L17.0156 5.96357L15.2692 5.52966L14.5531 8.38901C14.1729 8.30273 13.7996 8.21743 13.4373 8.12767L13.4393 8.11875L11.0296 7.51921L10.5648 9.37883C10.5648 9.37883 11.8612 9.67488 11.8339 9.69322C12.5415 9.86927 12.6699 10.3359 12.648 10.7058L11.8329 13.9644C11.8816 13.9768 11.9448 13.9946 12.0145 14.0224L11.8304 13.9768L10.6872 18.5415C10.6006 18.7558 10.3812 19.0771 9.8865 18.9551C9.90392 18.9804 8.61646 18.6392 8.61646 18.6392L7.74902 20.6327L10.0234 21.1976C10.4464 21.3032 10.8609 21.4138 11.2685 21.5179L10.5454 24.4115L12.2907 24.8454L13.0074 21.9831C13.4836 22.112 13.9465 22.231 14.3993 22.3431L13.6857 25.192L15.433 25.6259L16.1561 22.7383C19.1356 23.3002 21.3766 23.0735 22.3187 20.3888C23.0786 18.2266 22.2814 16.9795 20.7137 16.1657C21.8554 15.9024 22.7153 15.1541 22.9447 13.6083H22.9452ZM18.9525 19.1867C18.412 21.3488 14.7591 20.1805 13.5742 19.8869L14.5337 16.0541C15.7181 16.3487 19.5158 16.9318 18.953 19.1867H18.9525ZM19.4924 13.5771C18.9997 15.5438 15.959 14.5446 14.9721 14.2996L15.8421 10.8234C16.8289 11.0684 20.006 11.5256 19.4924 13.5771Z" fill="white"/>
</svg>
