<svg width="32" height="32" viewBox="0 0 32 32" fill="none" xmlns="http://www.w3.org/2000/svg">
<path d="M15.7391 31.3663C24.4315 31.3663 31.4781 24.3447 31.4781 15.6832C31.4781 7.02159 24.4315 0 15.7391 0C7.04662 0 0 7.02159 0 15.6832C0 24.3447 7.04662 31.3663 15.7391 31.3663Z" fill="#2573C2"/>
<path d="M26.0103 11.5557C25.9892 11.2043 25.8857 10.8627 25.7081 10.5583C25.5507 10.2446 25.2706 9.99995 24.9432 9.87448C24.6093 9.70869 24.2395 9.62787 23.8666 9.63924H9.89665L8.89564 12.6284H21.553L19.5541 18.7386H6.89993L5.89893 21.7278H19.935C20.3533 21.7158 20.7668 21.6363 21.1595 21.4926C21.553 21.2699 22.0031 21.044 22.384 20.7304C22.7559 20.4383 23.0919 20.1035 23.385 19.7329C23.6274 19.3699 23.834 18.9844 24.002 18.5818L25.8561 12.7727C26.0247 12.3905 26.0783 11.9677 26.0103 11.5557Z" fill="white"/>
<path d="M13.8849 14.297H6.43716L5.43616 17.0604H12.9594L13.8849 14.297Z" fill="white"/>
</svg>
