<svg width="32" height="32" viewBox="0 0 32 32" fill="none" xmlns="http://www.w3.org/2000/svg">
<path d="M31.3709 19.7078C29.2439 28.209 20.6024 33.3822 12.0699 31.2627C3.54143 29.1432 -1.65072 20.5325 0.476801 12.0318C2.60283 3.5296 11.2438 -1.6446 19.7738 0.47487C28.3058 2.59434 33.4979 11.2061 31.3709 19.7078Z" fill="#25CC68"/>
<path d="M20.445 18.66L20.4067 17.55H22.4833C22.6364 17.55 22.7576 17.6033 22.8469 17.71C22.9426 17.8167 22.9904 17.95 22.9904 18.11C22.9904 18.27 22.9426 18.4033 22.8469 18.51C22.7576 18.61 22.6364 18.66 22.4833 18.66H20.445ZM16.8852 18.66H9.45933C9.15311 18.66 9 18.4767 9 18.11C9 17.95 9.04785 17.8167 9.14354 17.71C9.23923 17.6033 9.35088 17.55 9.47847 17.55H16.378L16.8852 18.66ZM11.622 13.55L11.6507 14.65H9.50718C9.35407 14.65 9.22967 14.6 9.13397 14.5C9.04466 14.3933 9 14.26 9 14.1C9 13.9333 9.04785 13.8 9.14354 13.7C9.23923 13.6 9.36045 13.55 9.50718 13.55H11.622ZM15.8038 14.66L15.3349 13.55H22.5407C22.8469 13.55 23 13.7333 23 14.1C23 14.26 22.9522 14.3933 22.8565 14.5C22.7671 14.6067 22.6523 14.66 22.512 14.66H15.8038ZM14.0813 22.14C14.0813 22.4067 14.0048 22.6167 13.8517 22.77C13.6986 22.9233 13.4593 23 13.134 23H10.3206C10.0016 23 9.76555 22.9233 9.61244 22.77C9.45933 22.6167 9.38278 22.4067 9.38278 22.14C9.38278 21.72 9.59968 21.3967 10.0335 21.17L10.3014 21.05C10.4928 20.9633 10.6332 20.8567 10.7225 20.73C10.8118 20.6033 10.8565 20.4 10.8565 20.12V12.95C10.8565 12.5833 10.815 12.31 10.7321 12.13C10.6555 11.9433 10.5343 11.75 10.3684 11.55L9.66029 10.71C9.5008 10.5233 9.37321 10.3667 9.27751 10.24C9.1882 10.1067 9.14354 9.94333 9.14354 9.75C9.14354 9.52333 9.2201 9.34333 9.37321 9.21C9.52632 9.07 9.72408 9 9.96651 9H12.1962C12.4577 9 12.6842 9.03 12.8756 9.09C13.067 9.14333 13.2711 9.32333 13.488 9.63L19.823 18.6L19.3828 20.38V11.88C19.3828 11.6 19.3381 11.3967 19.2488 11.27C19.1595 11.1433 19.0191 11.0367 18.8278 10.95L18.5598 10.83C18.1196 10.6033 17.8995 10.28 17.8995 9.86C17.8995 9.59333 17.9761 9.38333 18.1292 9.23C18.2887 9.07667 18.5279 9 18.8469 9H21.6603C21.9793 9 22.2153 9.07667 22.3684 9.23C22.5279 9.38333 22.6077 9.59333 22.6077 9.86C22.6077 10.0867 22.5566 10.2733 22.4545 10.42C22.3525 10.5667 22.1834 10.7033 21.9474 10.83L21.6794 10.95C21.4753 11.0433 21.3317 11.15 21.2488 11.27C21.1659 11.39 21.1244 11.5933 21.1244 11.88V19.14C21.1244 19.4533 21.1499 19.73 21.201 19.97C21.2584 20.21 21.3445 20.4333 21.4593 20.64L21.8134 21.22C21.9474 21.4467 22.0399 21.62 22.0909 21.74C22.1419 21.86 22.1675 22 22.1675 22.16C22.1675 22.4133 22.0909 22.6167 21.9378 22.77C21.7911 22.9233 21.5933 23 21.3445 23H18.866C18.3876 23 18.1483 22.7733 18.1483 22.32C18.1483 22.1533 18.1005 22.0033 18.0048 21.87C17.9091 21.7367 17.7496 21.5133 17.5263 21.2L11.7273 12.99L12.5981 11.85V20.12C12.5981 20.4067 12.6396 20.61 12.7225 20.73C12.8054 20.8433 12.949 20.95 13.1531 21.05L13.4211 21.17C13.8612 21.3967 14.0813 21.72 14.0813 22.14Z" fill="white"/>
</svg>
