<svg width="32" height="32" viewBox="0 0 32 32" fill="none" xmlns="http://www.w3.org/2000/svg">
<rect width="31.4781" height="31.3663" rx="15.6832" fill="black"/>
<path d="M17.5858 14.2258V12.2799H22.0489V9.3175H9.89844V12.2799H14.3615V14.2258C10.7364 14.3928 8.00757 15.1079 8.00757 15.9647C8.00757 16.8215 10.7364 17.5366 14.3615 17.7036V23.9297H17.5895V17.7036C21.2109 17.5366 23.9324 16.8215 23.9324 15.9647C23.9288 15.1079 21.2073 14.3928 17.5858 14.2258ZM17.5895 17.1772C17.4984 17.1809 17.032 17.2099 15.99 17.2099C15.1557 17.2099 14.5728 17.1881 14.3651 17.1772V17.1809C11.1627 17.0393 8.76902 16.4838 8.76902 15.8195C8.76902 15.1551 11.159 14.5997 14.3651 14.4581V16.6218C14.5764 16.6363 15.1739 16.6726 16.0046 16.6726C16.9992 16.6726 17.4984 16.6327 17.5931 16.6218V14.4508C20.7919 14.5924 23.1783 15.1479 23.1783 15.8122C23.171 16.4766 20.7846 17.032 17.5895 17.1772Z" fill="white"/>
</svg>
