<svg width="33" height="32" viewBox="0 0 33 32" fill="none" xmlns="http://www.w3.org/2000/svg">
<path d="M16.057 32C24.9251 32 32.1141 24.8366 32.1141 16C32.1141 7.16344 24.9251 0 16.057 0C7.18897 0 0 7.16344 0 16C0 24.8366 7.18897 32 16.057 32Z" fill="black"/>
<path d="M26.6073 11.2628C25.6966 10.6281 24.7226 9.95136 23.7697 9.27989C23.7487 9.26415 23.7276 9.24841 23.7013 9.23267C23.596 9.15398 23.4749 9.07005 23.3275 9.02284L23.317 9.01759C20.7689 8.40382 18.1787 7.77431 15.6728 7.16579C13.3985 6.61497 11.1294 6.06415 8.85512 5.51333C8.79721 5.49759 8.7393 5.48185 8.67613 5.46612C8.47081 5.40841 8.2339 5.34546 7.9812 5.37694C7.90749 5.38743 7.84432 5.41366 7.78641 5.45038L7.72323 5.50284C7.6232 5.59726 7.57056 5.71792 7.54424 5.78612L7.52844 5.82808V6.06939L7.53897 6.10612C8.97621 10.1192 10.4503 14.1901 11.8717 18.1297C12.9668 21.1619 14.1039 24.3041 15.2148 27.3887C15.2832 27.5986 15.478 27.735 15.7202 27.7559H15.7728C15.9992 27.7559 16.1992 27.6458 16.2993 27.4674L20.4688 21.4084C21.4849 19.9343 22.501 18.455 23.517 16.9809C23.9329 16.3776 24.3488 15.7691 24.7647 15.1658C25.4491 14.1691 26.1546 13.1409 26.8548 12.1389L26.8916 12.0864V12.0235C26.9074 11.8399 26.9127 11.4622 26.6073 11.2628ZM21.7218 13.4714C20.7426 13.9802 19.7423 14.5048 18.7368 15.0241C19.3211 14.3999 19.9108 13.7704 20.4951 13.1461C21.2269 12.3592 21.9903 11.5461 22.7379 10.7487L22.7537 10.733C22.8168 10.6491 22.8958 10.5704 22.98 10.4864C23.0379 10.4287 23.1011 10.371 23.159 10.3028C23.5486 10.5704 23.9435 10.8432 24.3225 11.1107C24.5963 11.3048 24.8753 11.4989 25.1596 11.693C24.0014 12.2805 22.8432 12.8838 21.7218 13.4714ZM19.2053 13.2196C18.4525 14.0327 17.6733 14.8668 16.8994 15.6904C15.399 13.8753 13.867 12.034 12.3824 10.2556C11.7085 9.44775 11.0294 8.63464 10.3555 7.82677L10.3503 7.82153C10.1976 7.64841 10.0502 7.45956 9.90278 7.2812C9.80801 7.16054 9.70799 7.04513 9.60796 6.92448C10.2187 7.08185 10.8346 7.22874 11.44 7.37038C11.9718 7.49628 12.5245 7.62743 13.0668 7.76382C16.1203 8.50349 19.179 9.24316 22.2325 9.98284C21.2164 11.0635 20.1951 12.1599 19.2053 13.2196ZM16.5572 23.4438C16.6151 22.893 16.6783 22.3264 16.731 21.7704C16.7783 21.3245 16.8257 20.8681 16.8731 20.4327C16.9468 19.735 17.0258 19.011 17.089 18.3028L17.1047 18.1769C17.1574 17.7258 17.21 17.2589 17.2416 16.792C17.2995 16.7605 17.3627 16.7291 17.4312 16.7028C17.5101 16.6661 17.5891 16.6346 17.6681 16.5874C18.8842 15.9527 20.1003 15.3179 21.3217 14.6884C22.5378 14.0589 23.7855 13.4084 25.0227 12.7632C23.8961 14.3894 22.7642 16.0314 21.6692 17.6314C20.7268 19.0005 19.7581 20.4117 18.7947 21.8019C18.4156 22.3579 18.0208 22.9245 17.647 23.47C17.2258 24.0786 16.7941 24.7028 16.373 25.3271C16.4256 24.6976 16.4888 24.0628 16.5572 23.4438ZM9.21838 8.16251C9.14994 7.97366 9.07623 7.77956 9.01306 7.59595C10.4345 9.30612 11.8665 11.0268 13.2616 12.695C13.9828 13.5605 14.7041 14.4209 15.4253 15.2917C15.5675 15.4543 15.7096 15.6274 15.8465 15.7953C16.0255 16.0104 16.2045 16.236 16.3993 16.451C16.3361 16.9914 16.2835 17.5369 16.2256 18.0615C16.1887 18.4287 16.1519 18.7959 16.1097 19.1684V19.1737C16.0939 19.4097 16.0624 19.6458 16.036 19.8766C15.9992 20.1966 15.9149 20.9205 15.9149 20.9205L15.9097 20.9573C15.8149 22.0169 15.6991 23.0871 15.5885 24.1258C15.5412 24.556 15.499 24.9966 15.4517 25.4373C15.4253 25.3586 15.3938 25.2799 15.3674 25.2064C15.2885 24.9966 15.2095 24.7763 15.1358 24.5612L14.5725 23.0032C12.7878 18.0563 11.0031 13.1146 9.21838 8.16251Z" fill="white"/>
</svg>
