<svg width="32" height="32" viewBox="0 0 32 32" fill="none" xmlns="http://www.w3.org/2000/svg">
<rect opacity="0.1" x="0.5" y="0.5" width="31" height="31" rx="5.5" fill="#2E3192" stroke="#2E3192" stroke-linejoin="round"/>
<path d="M23.3736 16.9035L23.3736 16.9031L23.2824 16.9091L23.2727 16.9097V16.9094H8.72727C8.36782 16.9094 8.04975 16.6836 7.91579 16.3449L23.3736 16.9035ZM23.3736 16.9035L23.3834 16.9022M23.3736 16.9035L23.3834 16.9022M23.3834 16.9022C23.8204 16.845 24.15 16.4583 24.15 16.0002C24.15 15.5044 23.763 15.091 23.2727 15.091H10.8407L15.215 10.5439L15.2152 10.5442L15.2216 10.5366L15.287 10.4591L15.2872 10.4593L15.2932 10.4511C15.5533 10.0965 15.5279 9.58877 15.2175 9.26257L15.2173 9.26239C14.8753 8.90412 14.3162 8.9028 13.9728 9.25999L8.1062 15.3587L8.10598 15.3585L8.09985 15.3657L8.03516 15.4421L8.03489 15.4419M23.3834 16.9022L8.03489 15.4419M8.03489 15.4419L8.02886 15.4501M8.03489 15.4419L8.02886 15.4501M8.02886 15.4501C7.91064 15.6105 7.85 15.805 7.85 16.0002C7.85 16.1172 7.87195 16.2341 7.91578 16.3449L8.02886 15.4501ZM15.107 21.5601C15.3921 21.8557 15.3921 22.3365 15.1089 22.6341M15.107 21.5601L15.2151 21.4561L15.2151 21.4561C15.215 21.4561 15.215 21.456 15.215 21.456L11.9792 18.0925L11.9795 18.0922L11.9721 18.0855L11.8973 18.0175L11.8976 18.0173L11.8896 18.0109C11.5433 17.7366 11.0479 17.7658 10.7346 18.0951C10.565 18.2733 10.4809 18.5042 10.4809 18.7339C10.4809 18.9653 10.5648 19.1978 10.7371 19.3765L10.7371 19.3764L10.8452 19.2725L10.7372 19.3766L15.1089 22.6341M15.107 21.5601L11.8711 18.1964L15.107 21.5601ZM15.1089 22.6341C14.8494 22.906 14.4407 22.9295 14.1548 22.7038L15.1089 22.6341Z" fill="#2E3192" stroke="#2E3192" stroke-width="0.3"/>
</svg>
