<svg width="24" height="24" viewBox="0 0 24 24" fill="none" xmlns="http://www.w3.org/2000/svg">
<rect opacity="0.1" x="3.05176e-05" width="24" height="24" rx="6" fill="#2E3192"/>
<path d="M9.21308 15.1169C8.89397 15.1148 8.5799 15.1962 8.30344 15.3527L8.30342 15.3527L8.3007 15.3543C8.17799 15.4273 8.02961 15.4484 7.89013 15.4123C7.75073 15.3762 7.63357 15.2865 7.56479 15.1652L7.56482 15.1652L7.56328 15.1626L7.17182 14.5033C7.17174 14.5032 7.17166 14.503 7.17159 14.5029C7.02714 14.2552 7.11377 13.9384 7.37112 13.7946L7.37115 13.7946L7.37436 13.7927C8.22168 13.2912 8.5183 12.2249 8.04253 11.3715L8.04221 11.3709C7.88944 11.0997 7.66719 10.8724 7.39771 10.7111L7.39774 10.7111L7.39385 10.7089C7.156 10.576 7.06411 10.2951 7.16517 10.0585L7.1959 9.99804C7.37089 9.7117 7.2862 9.34205 7.00599 9.15598L7.00537 9.15557C6.86331 9.06225 6.68958 9.02834 6.52244 9.06071C6.38863 9.08663 6.26715 9.15346 6.17499 9.25093L6.17465 9.2506L6.16714 9.25992L6.11876 9.32002L6.11078 9.32993L6.10458 9.34105C5.6487 10.1588 5.90196 11.1723 6.66988 11.6968L6.66984 11.6968L6.67395 11.6995L6.76863 11.7597L6.76846 11.76L6.77695 11.7646C6.91043 11.8379 7.00443 11.9625 7.03703 12.1062C7.06961 12.2498 7.03822 12.4004 6.94984 12.5207L6.94933 12.5204L6.94223 12.5321C6.89483 12.6108 6.82741 12.6768 6.74603 12.7236L6.74602 12.7236L6.74435 12.7246C5.89703 13.226 5.60041 14.2923 6.07618 15.1458L6.07615 15.1458L6.07773 15.1485L6.46404 15.8087L6.464 15.8087L6.46606 15.812C6.95907 16.6064 7.97868 16.9012 8.8267 16.5183L8.82673 16.5184L8.83108 16.5163L8.93204 16.4667L8.93213 16.4669L8.93882 16.4632C9.20039 16.3177 9.53148 16.4072 9.67989 16.6581L9.67988 16.6581L9.68068 16.6594C9.72723 16.7363 9.75106 16.8238 9.7499 16.9126H9.74989V16.9146C9.74989 17.9199 10.5835 18.7289 11.6042 18.7289C11.8327 18.7289 12.0455 18.6099 12.1614 18.4139C12.2775 18.2175 12.2775 17.975 12.1614 17.7786C12.085 17.6494 11.9665 17.5536 11.8291 17.5034L11.8552 17.4525L11.6099 17.4525C11.3085 17.4525 11.0695 17.2162 11.0668 16.9305C11.0664 15.9257 10.2333 15.1172 9.21308 15.1169ZM9.21308 15.1169C9.21288 15.1169 9.21268 15.1169 9.21248 15.1169V15.2669L9.2135 15.1169C9.21336 15.1169 9.21322 15.1169 9.21308 15.1169ZM16.9217 11.9272L17.0502 12.0046C17.0976 11.9259 17.165 11.8599 17.2464 11.8132L17.2476 11.8125C17.5516 11.6341 17.6535 11.2463 17.4703 10.945L17.47 10.9446C17.3064 10.6773 16.9765 10.5688 16.6882 10.6698L16.6881 10.6694L16.6784 10.6736L16.6123 10.7021L16.6036 10.7059L16.5953 10.7108C15.7489 11.2117 15.452 12.2764 15.9257 13.1294C16.0771 13.4267 16.3112 13.6757 16.6007 13.848L16.6007 13.848L16.6044 13.8501C16.7281 13.9191 16.8174 14.0329 16.8535 14.1653C16.8897 14.2976 16.8701 14.4386 16.7988 14.5571L16.7979 14.5587L16.4126 15.2173C16.4124 15.2175 16.4122 15.2178 16.4121 15.218C16.3394 15.3383 16.2215 15.4275 16.082 15.4659C15.9435 15.5017 15.7962 15.4812 15.674 15.4094L15.674 15.4093L15.6687 15.4065C15.1009 15.1029 14.4123 15.1109 13.852 15.4276C13.2913 15.7445 12.939 16.3256 12.9256 16.9613L12.9254 16.9711L12.9265 16.9808C12.9623 17.3078 13.2435 17.5507 13.5727 17.5507C13.9019 17.5507 14.1831 17.3078 14.2189 16.9808L14.22 16.9712L14.2198 16.9616C14.2162 16.7756 14.3163 16.6006 14.4844 16.5059C14.6528 16.4111 14.8612 16.4131 15.0276 16.5112L15.0275 16.5113L15.0333 16.5144C15.8655 16.9568 16.8989 16.7131 17.4364 15.9626L17.4365 15.9627L17.4393 15.9585L17.5009 15.8661L17.5012 15.8662L17.5056 15.8586L17.8914 15.1994C18.4118 14.3386 18.1218 13.2305 17.2474 12.7187L17.2474 12.7186L17.2452 12.7174C17.1209 12.6474 17.0313 12.5326 16.9951 12.3992C16.959 12.2659 16.9786 12.1239 17.0503 12.0043L16.9217 11.9272ZM16.9217 11.9272C16.8291 12.0815 16.8034 12.2656 16.8504 12.4385C16.8973 12.6114 17.013 12.7588 17.1717 12.8481L16.0582 13.0589C15.6228 12.2779 15.893 11.3007 16.6717 10.8398L16.7378 10.8113C16.9617 10.7329 17.2166 10.818 17.3421 11.0229C17.481 11.2513 17.4048 11.5463 17.1717 11.6831C17.0684 11.7424 16.9824 11.8264 16.9217 11.9272ZM11.9962 10.0297C11.0731 10.0297 10.2385 10.5731 9.88405 11.4102C9.52939 12.2479 9.72726 13.2112 10.3831 13.85C11.0384 14.4882 12.0215 14.6769 12.8741 14.3301C13.6846 14.0004 14.2283 13.2472 14.2785 12.3948L14.2786 12.3948L14.2787 12.3902L14.2822 12.2643L14.2823 12.2643V12.26C14.2823 11.6663 14.0403 11.0977 13.611 10.6796C13.1818 10.2616 12.6008 10.0282 11.9962 10.0297ZM11.9962 10.0297V10.1797L11.9958 10.0297C11.9959 10.0297 11.9961 10.0297 11.9962 10.0297ZM14.2425 7.61305L14.2425 7.61305V7.61108C14.2425 6.60573 13.4089 5.79678 12.3882 5.79678H11.6099V5.79671L11.6055 5.79684C10.6052 5.82615 9.80486 6.62848 9.80669 7.61355C9.80021 7.75103 9.73843 7.88131 9.63346 7.97575C9.52758 8.071 9.38653 8.12177 9.24133 8.11581L9.23872 8.11575C9.14406 8.11354 9.05171 8.08808 8.97018 8.04197C8.66973 7.86104 8.27457 7.95007 8.08608 8.24619C7.91175 8.52005 7.97703 8.87231 8.22278 9.07078L8.22256 9.07104L8.23083 9.07685L8.27556 9.10825L8.28961 9.12197L8.30333 9.13537L8.31998 9.14488C8.8815 9.46582 9.5751 9.4703 10.1409 9.15671C10.7071 8.84292 11.061 8.25707 11.0668 7.61799L11.0669 7.61799L11.0668 7.61286C11.0632 7.4721 11.1179 7.33518 11.2198 7.23329C11.3217 7.13128 11.4623 7.07313 11.6098 7.07317H11.6099H12.3882H12.3883C12.5351 7.07309 12.6749 7.13126 12.776 7.23316C12.8768 7.33494 12.9304 7.47155 12.9257 7.61155L12.9254 7.61155L12.9257 7.62029C12.9411 8.25496 13.2942 8.8341 13.8546 9.14958C14.4145 9.46486 15.1018 9.47224 15.6687 9.16912L15.6687 9.16915L15.6714 9.16765C15.9116 9.03283 16.2126 9.09672 16.3752 9.30401L16.4154 9.36285C16.5993 9.65708 16.9867 9.75311 17.2901 9.58393L17.2902 9.58397L17.2933 9.58211C17.5942 9.40459 17.7009 9.02388 17.5297 8.71925L17.5298 8.71918L17.5264 8.71365C17.012 7.88481 15.9242 7.59965 15.0561 8.06114L15.056 8.0611L15.0525 8.06309C14.9281 8.13361 14.7794 8.15278 14.64 8.11587C14.5007 8.07898 14.3833 7.98951 14.3132 7.86866L14.3132 7.86864L14.3117 7.86625C14.2652 7.78938 14.2413 7.7018 14.2425 7.61305ZM11.01 12.2656C11.01 11.739 11.4482 11.3061 11.9962 11.3061C12.5156 11.3061 12.9367 11.6953 12.9789 12.184L12.9824 12.2686C12.9808 12.7938 12.5432 13.2251 11.9962 13.2251C11.4482 13.2251 11.01 12.7922 11.01 12.2656Z" fill="#2E3192" stroke="#2E3192" stroke-width="0.3"/>
</svg>
