<svg width="24" height="24" viewBox="0 0 24 24" fill="none" xmlns="http://www.w3.org/2000/svg">
<rect x="24" width="24" height="24" rx="4" transform="rotate(90 24 0)" fill="#2E3192" fill-opacity="0.1"/>
<path d="M16 10.5H11.5C10.9477 10.5 10.5 10.9477 10.5 11.5V16C10.5 16.5523 10.9477 17.0001 11.5 17.0001H16C16.5523 17.0001 17.0001 16.5523 17.0001 16V11.5C17.0001 10.9477 16.5523 10.5 16 10.5Z" stroke="#2E3192" stroke-width="1.3" stroke-linecap="round" stroke-linejoin="round"/>
<path d="M8.50001 13.5001H8.00001C7.73479 13.5001 7.48043 13.3947 7.2929 13.2072C7.10536 13.0196 7 12.7653 7 12.5V8.00001C7 7.73479 7.10536 7.48043 7.2929 7.2929C7.48043 7.10536 7.73479 7 8.00001 7H12.5C12.7653 7 13.0196 7.10536 13.2072 7.2929C13.3947 7.48043 13.5001 7.73479 13.5001 8.00001V8.50001" stroke="#2E3192" stroke-width="1.3" stroke-linecap="round" stroke-linejoin="round"/>
</svg>
