<svg width="24" height="24" viewBox="0 0 24 24" fill="none" xmlns="http://www.w3.org/2000/svg">
<rect opacity="0.1" x="3.05176e-05" width="24" height="24" rx="6" fill="#2E3192"/>
<path d="M16.9689 17.1462L16.9689 17.1465L16.9788 17.1452C17.2391 17.1106 17.4438 16.8909 17.4438 16.6202C17.4438 16.3249 17.2004 16.0905 16.9065 16.0905H12.8652V16.0902L12.8554 16.0909L12.8028 16.0943L12.8028 16.094L12.7929 16.0953C12.5326 16.1299 12.3279 16.3495 12.3279 16.6202C12.3279 16.9156 12.5713 17.1499 12.8652 17.1499H16.9065V17.1503L16.9164 17.1496L16.9689 17.1462ZM6.6153 14.2887L6.6153 14.2889L6.55635 16.6069C6.5487 16.9075 6.79443 17.1499 7.09353 17.1499H9.4371C9.93894 17.1499 10.4204 16.9548 10.776 16.6063L16.4985 10.9968C17.2919 10.2191 17.2919 8.95651 16.4985 8.17883L15.7372 7.43253C14.9455 6.65648 13.6627 6.65648 12.871 7.43253L7.17095 13.0199C6.82734 13.3568 6.62808 13.8113 6.6153 14.2887ZM14.6414 11.3232L10.0206 15.8527L9.96264 15.9047C9.81618 16.0241 9.63061 16.0905 9.43712 16.0905C9.43711 16.0905 9.4371 16.0905 9.4371 16.0905L7.64439 16.0902L7.68965 14.3161C7.68965 14.3161 7.68965 14.3161 7.68965 14.316C7.69514 14.1121 7.78056 13.9164 7.92875 13.7712L7.92877 13.7711L12.5329 9.25689L14.6414 11.3232ZM13.6287 8.18383L13.6288 8.18374C14.0013 7.81861 14.6069 7.81861 14.9794 8.18374L15.7383 8.92768L15.8014 8.99538C16.1102 9.36067 16.0902 9.90299 15.7407 10.2456C15.7407 10.2456 15.7407 10.2456 15.7407 10.2456L15.4034 10.5761L13.2955 8.50991L13.6287 8.18383Z" fill="#2E3192" stroke="#2E3192" stroke-width="0.3"/>
</svg>
