<svg width="24" height="24" viewBox="0 0 24 24" fill="none" xmlns="http://www.w3.org/2000/svg">
<rect opacity="0.1" x="3.05176e-05" width="24" height="24" rx="6" fill="#FF5E5E"/>
<path d="M16.8409 12.589H11.2795C10.9521 12.589 10.6789 12.3289 10.6789 12C10.6789 11.6714 10.9518 11.4106 11.2795 11.4106H18.2999C18.5408 11.4106 18.7605 11.5523 18.8542 11.7741C18.9481 11.9961 18.8946 12.2508 18.7225 12.4186L18.7223 12.4189L17.0148 14.0771L17.0143 14.0775C16.8973 14.1902 16.7452 14.2477 16.5924 14.2477C16.4401 14.2477 16.286 14.1904 16.1689 14.0754C15.9339 13.8446 15.9333 13.4701 16.1706 13.24L16.8409 12.589ZM16.8409 12.589L16.1707 13.2399L16.8409 12.589ZM17.4434 10.3372L17.4434 10.3371L17.0134 9.9222C17.0133 9.92219 17.0133 9.92217 17.0133 9.92215C16.7778 9.69479 16.4009 9.69612 16.1674 9.92672C15.9327 10.1575 15.9345 10.5327 16.1715 10.7616L16.1715 10.7616L16.6022 11.1772L16.6024 11.1773C16.7192 11.2898 16.8715 11.3464 17.0231 11.3464C17.1766 11.3464 17.3305 11.2881 17.4478 11.1729L17.448 11.1727C17.6828 10.9413 17.6811 10.5667 17.4434 10.3372ZM14.939 14.6349C14.939 14.3063 14.6667 14.046 14.339 14.046C14.0114 14.046 13.7391 14.3063 13.7391 14.6349V15.1713C13.7391 15.9953 13.0507 16.6721 12.1962 16.6721H9.34805C8.49122 16.6721 7.79991 15.993 7.79991 15.165C7.79991 14.8362 7.52736 14.5767 7.19995 14.5767C6.87255 14.5767 6.6 14.8362 6.6 15.165C6.6 16.649 7.83646 17.8499 9.34805 17.8499H12.1962C13.7054 17.8499 14.939 16.6519 14.939 15.1713V14.6349ZM14.9391 8.83482C14.9391 7.35079 13.7026 6.14993 12.1905 6.14993H9.3429C7.8337 6.14993 6.60012 7.34792 6.60012 8.82855V13.1693C6.60012 13.4979 6.87241 13.7582 7.20007 13.7582C7.52773 13.7582 7.80002 13.4979 7.80002 13.1693V8.82855C7.80002 8.00512 8.48841 7.32776 9.3429 7.32776H12.1905C13.0479 7.32776 13.7392 8.00687 13.7392 8.83482V9.36551C13.7392 9.69366 14.0116 9.95386 14.3391 9.95386C14.6667 9.95386 14.9391 9.69366 14.9391 9.36551V8.83482Z" fill="#FF5E5E" stroke="#FF5E5E" stroke-width="0.3"/>
</svg>
