<svg width="365" height="185" viewBox="0 0 365 185" fill="none" xmlns="http://www.w3.org/2000/svg">
<path d="M49.4605 96.375C49.4605 94.775 49.6855 93.4 50.1355 92.25C50.6356 91.1 51.3106 90.125 52.1605 89.325L62.9605 79.275C64.1105 78.175 65.0855 77.45 65.8856 77.1C66.6855 76.7 67.5105 76.5 68.3605 76.5C69.3605 76.5 70.1605 76.85 70.7606 77.55C71.4106 78.25 71.7356 79.35 71.7356 80.85L71.8855 128.175C71.8855 130.125 72.3105 131.6 73.1606 132.6C74.0106 133.55 75.1856 134.225 76.6856 134.625L81.7856 136.125C83.3855 136.725 84.6105 137.45 85.4606 138.3C86.3606 139.15 86.8106 140.275 86.8106 141.675C86.8106 143.325 86.2856 144.625 85.2356 145.575C84.2356 146.525 82.6856 147 80.5855 147H39.7855C35.6855 147 33.6355 145.225 33.6355 141.675C33.6355 138.875 35.2855 137 38.5855 136.05L44.6606 134.625C46.2105 134.325 47.3855 133.675 48.1856 132.675C49.0355 131.625 49.4605 130.125 49.4605 128.175V96.375ZM35.5105 75.6C37.6105 73.6 39.2355 71.7 40.3855 69.9C41.5355 68.1 42.1105 66.375 42.1105 64.725C42.1105 63.325 41.8855 62.1 41.4355 61.05C40.9855 59.95 40.4355 58.9 39.7855 57.9C39.1855 56.85 38.6605 55.725 38.2105 54.525C37.7605 53.325 37.5355 51.95 37.5355 50.4C37.5355 48.05 38.1105 45.95 39.2605 44.1C40.4105 42.2 42.1105 40.725 44.3606 39.675C46.6606 38.625 49.5105 38.1 52.9105 38.1C56.9105 38.1 60.1606 39.2 62.6606 41.4C65.2106 43.55 66.4856 46.675 66.4856 50.775C66.4856 52.775 66.1356 54.825 65.4356 56.925C64.7856 58.975 63.5606 61.225 61.7605 63.675C59.9605 66.125 57.3855 68.95 54.0356 72.15L13.1605 114.225L11.3605 109.95H82.7606C84.5106 109.95 85.9106 110.35 86.9606 111.15C88.0605 111.9 88.6105 113.15 88.6105 114.9C88.6105 118.55 86.6355 120.375 82.6855 120.375L9.26055 120.3C7.16055 120.3 5.53555 119.725 4.38555 118.575C3.23555 117.425 2.66055 115.9 2.66055 114C2.66055 112.85 2.96055 111.65 3.56055 110.4C4.21055 109.1 5.41055 107.625 7.16055 105.975L35.5105 75.6Z" fill="#2E3192"/>
<path d="M319.461 96.375C319.461 94.775 319.686 93.4 320.136 92.25C320.636 91.1 321.311 90.125 322.161 89.325L332.961 79.275C334.111 78.175 335.086 77.45 335.886 77.1C336.686 76.7 337.511 76.5 338.361 76.5C339.361 76.5 340.161 76.85 340.761 77.55C341.411 78.25 341.736 79.35 341.736 80.85L341.886 128.175C341.886 130.125 342.311 131.6 343.161 132.6C344.011 133.55 345.186 134.225 346.686 134.625L351.786 136.125C353.386 136.725 354.611 137.45 355.461 138.3C356.361 139.15 356.811 140.275 356.811 141.675C356.811 143.325 356.286 144.625 355.236 145.575C354.236 146.525 352.686 147 350.586 147H309.786C305.686 147 303.636 145.225 303.636 141.675C303.636 138.875 305.286 137 308.586 136.05L314.661 134.625C316.211 134.325 317.386 133.675 318.186 132.675C319.036 131.625 319.461 130.125 319.461 128.175V96.375ZM305.511 75.6C307.611 73.6 309.236 71.7 310.386 69.9C311.536 68.1 312.111 66.375 312.111 64.725C312.111 63.325 311.886 62.1 311.436 61.05C310.986 59.95 310.436 58.9 309.786 57.9C309.186 56.85 308.661 55.725 308.211 54.525C307.761 53.325 307.536 51.95 307.536 50.4C307.536 48.05 308.111 45.95 309.261 44.1C310.411 42.2 312.111 40.725 314.361 39.675C316.661 38.625 319.511 38.1 322.911 38.1C326.911 38.1 330.161 39.2 332.661 41.4C335.211 43.55 336.486 46.675 336.486 50.775C336.486 52.775 336.136 54.825 335.436 56.925C334.786 58.975 333.561 61.225 331.761 63.675C329.961 66.125 327.386 68.95 324.036 72.15L283.161 114.225L281.361 109.95H352.761C354.511 109.95 355.911 110.35 356.961 111.15C358.061 111.9 358.611 113.15 358.611 114.9C358.611 118.55 356.636 120.375 352.686 120.375L279.261 120.3C277.161 120.3 275.536 119.725 274.386 118.575C273.236 117.425 272.661 115.9 272.661 114C272.661 112.85 272.961 111.65 273.561 110.4C274.211 109.1 275.411 107.625 277.161 105.975L305.511 75.6Z" fill="#2E3192"/>
<path d="M139.636 109.465C149.505 107.357 155.51 96.3138 153.05 84.8008C150.589 73.2878 140.595 65.6642 130.727 67.7731C120.858 69.882 114.853 80.9247 117.313 92.4377C119.774 103.951 129.768 111.574 139.636 109.465Z" fill="#2E3192"/>
<path d="M140.682 102.702C148.247 101.086 152.984 93.2418 151.262 85.1827C149.54 77.1236 142.011 71.901 134.445 73.5178C126.879 75.1346 122.142 82.9785 123.864 91.0376C125.587 99.0967 133.116 104.319 140.682 102.702Z" fill="#FBB03B"/>
<path d="M234.132 89.2735C244 87.1646 250.006 76.1219 247.545 64.6089C245.085 53.0959 235.09 45.4723 225.222 47.5812C215.354 49.6901 209.349 60.7328 211.809 72.2458C214.269 83.7588 224.264 91.3824 234.132 89.2735Z" fill="#2E3192"/>
<path d="M230.413 83.5284C237.978 81.9116 242.716 74.0677 240.993 66.0086C239.271 57.9495 231.742 52.727 224.176 54.3438C216.61 55.9606 211.873 63.8044 213.596 71.8635C215.318 79.9226 222.847 85.1452 230.413 83.5284Z" fill="#FBB03B"/>
<path d="M248.761 108.384C248.754 108.368 248.742 108.354 248.727 108.345C248.711 108.335 248.693 108.331 248.676 108.333C248.658 108.335 248.641 108.342 248.628 108.354C248.614 108.366 248.605 108.381 248.601 108.399C247.581 112.41 244.091 114.601 240.013 115.764C239.979 115.773 239.942 115.771 239.909 115.759C239.876 115.746 239.849 115.723 239.83 115.692C239.812 115.662 239.803 115.627 239.807 115.592C239.81 115.557 239.825 115.523 239.849 115.497C242.988 112.021 245.65 106.431 244.48 102.901C244.473 102.883 244.46 102.869 244.443 102.86C244.427 102.851 244.408 102.849 244.389 102.852C244.371 102.856 244.354 102.866 244.342 102.88C244.33 102.895 244.323 102.913 244.323 102.932C244.159 106.281 242.239 107.543 239.83 107.781C239.937 104.994 239.696 102.205 239.113 99.4779C237.18 90.4317 231.687 82.8751 223.99 77.4768C223.402 77.068 222.976 76.4664 222.786 75.7764C222.595 75.0864 222.652 74.3515 222.947 73.6991C223.855 71.6455 224.452 49.7754 216.344 41.0228C208.033 32.0523 188.471 34.8853 180.413 40.0113C180.31 40.0756 180.194 40.1156 180.073 40.1286C179.952 40.1415 179.829 40.127 179.715 40.0861C179.6 40.0452 179.496 39.979 179.411 39.8923C179.325 39.8057 179.26 39.7009 179.221 39.5858C178.575 37.8581 177.396 36.5679 175.648 36.4265C177.846 37.8696 176.963 39.8476 175.018 41.7502C174.963 41.8034 174.894 41.8401 174.82 41.8562C174.745 41.8724 174.667 41.8673 174.595 41.8415C174.523 41.8158 174.46 41.7703 174.412 41.7105C174.365 41.6506 174.335 41.5786 174.326 41.5026C173.798 37.1915 172.085 33.4323 169.116 33C172.104 35.6537 170.676 39.1284 167.903 42.3368C167.818 42.4347 167.71 42.5107 167.589 42.5583C167.469 42.606 167.338 42.624 167.209 42.6108C157.623 41.7051 139.319 46.9925 135.554 58.2868C131.858 69.3672 140.993 89.0825 142.678 90.6233C143.21 91.102 143.558 91.7517 143.661 92.4599C143.764 93.168 143.616 93.89 143.242 94.5004C138.304 102.639 136.312 111.882 138.266 121.028C138.852 123.768 139.777 126.424 141.021 128.934C138.891 129.494 136.828 128.983 135.414 126.195C135.375 126.118 135.253 126.142 135.262 126.229C135.629 129.932 140.348 133.952 144.638 135.843C144.671 135.857 144.698 135.882 144.715 135.913C144.732 135.943 144.739 135.979 144.735 136.014C144.73 136.049 144.714 136.082 144.689 136.107C144.665 136.132 144.632 136.148 144.597 136.154C140.399 136.76 136.318 136.188 133.749 132.942C133.738 132.928 133.723 132.917 133.706 132.912C133.689 132.906 133.671 132.906 133.654 132.912C133.637 132.918 133.622 132.929 133.611 132.944C133.601 132.958 133.596 132.976 133.596 132.994C133.906 136.943 142.955 141.577 150.937 143.703C154.429 144.66 157.839 145.895 161.133 147.397C171.491 152.034 184.253 153.487 197.331 150.692C210.056 147.973 220.864 141.705 228.402 133.57C230.957 130.743 233.733 128.122 236.703 125.734C243.315 120.551 250.134 112.235 248.761 108.384Z" fill="#2E3192"/>
<path d="M217.191 82.9504C216.703 82.5871 216.349 82.073 216.183 81.4877C216.017 80.9024 216.05 80.2788 216.275 79.7138C220.652 68.7846 218.423 56.9159 210.363 51.5424C201.089 45.3591 187.614 50.1182 180.265 62.1755C180.089 62.4709 179.854 62.7271 179.575 62.9284C179.296 63.1298 178.979 63.272 178.643 63.3463C178.307 63.4205 177.96 63.4253 177.622 63.3604C177.284 63.2955 176.963 63.1621 176.679 62.9686C164.931 55.1357 150.705 56.5036 144.904 66.0204C139.895 74.2365 142.807 85.8391 151.254 93.8972C151.694 94.3172 151.983 94.8707 152.075 95.4716C152.168 96.0726 152.06 96.6873 151.767 97.2202C147.882 104.202 146.415 112.149 148.158 120.032C152.414 139.275 174.157 150.829 196.721 145.839C219.285 140.848 234.126 121.202 229.869 101.958C228.144 94.1634 223.547 87.6329 217.191 82.9504Z" fill="white"/>
<path d="M168.488 88.7678C172.323 87.9484 174.747 84.0842 173.904 80.1369C173.06 76.1896 169.268 73.6539 165.433 74.4733C161.599 75.2928 159.174 79.157 160.018 83.1043C160.862 87.0516 164.654 89.5873 168.488 88.7678Z" fill="#2E3192"/>
<path d="M167.902 81.6958C169.337 80.046 169.351 77.7095 167.934 76.4773C166.516 75.245 164.205 75.5835 162.77 77.2334C161.336 78.8832 161.321 81.2197 162.739 82.4519C164.156 83.6842 166.468 83.3457 167.902 81.6958Z" fill="white"/>
<path d="M169.897 85.5234C170.499 85.0373 170.742 84.3399 170.44 83.9655C170.138 83.5911 169.405 83.6816 168.803 84.1676C168.2 84.6536 167.957 85.3511 168.259 85.7255C168.561 86.0999 169.295 86.0094 169.897 85.5234Z" fill="white"/>
<path d="M198.072 82.207C201.906 81.3876 204.331 77.5234 203.487 73.5761C202.643 69.6288 198.851 67.0931 195.017 67.9125C191.182 68.732 188.758 72.5962 189.601 76.5435C190.445 80.4908 194.237 83.0265 198.072 82.207Z" fill="#2E3192"/>
<path d="M197.486 75.1353C198.92 73.4854 198.934 71.149 197.517 69.9167C196.1 68.6845 193.788 69.023 192.353 70.6728C190.919 72.3227 190.905 74.6591 192.322 75.8914C193.739 77.1236 196.051 76.7851 197.486 75.1353Z" fill="white"/>
<path d="M199.48 78.9626C200.082 78.4766 200.326 77.7791 200.023 77.4047C199.721 77.0303 198.988 77.1208 198.386 77.6068C197.784 78.0928 197.54 78.7903 197.843 79.1647C198.145 79.5391 198.878 79.4486 199.48 78.9626Z" fill="white"/>
<path d="M209.716 110.607C213.24 108.45 217.21 102.747 211.032 93.8212C206.039 87.02 200.956 84.2298 199.586 84.8467C197.801 85.6507 196.423 95.1045 196.628 99.2345C197.223 111.228 206.192 112.764 209.716 110.607Z" fill="#6EE0ED"/>
<path d="M181.128 99.3519C182.444 99.0707 183.321 97.9539 183.086 96.8573C182.852 95.7608 181.595 95.0998 180.28 95.381C178.964 95.6622 178.087 96.7791 178.321 97.8756C178.556 98.9721 179.812 99.6331 181.128 99.3519Z" fill="#2E3192"/>
<path d="M191.451 97.1459C192.767 96.8647 193.644 95.7478 193.409 94.6513C193.175 93.5547 191.919 92.8938 190.603 93.175C189.287 93.4561 188.41 94.573 188.645 95.6695C188.879 96.7661 190.136 97.4271 191.451 97.1459Z" fill="#2E3192"/>
<path d="M175.607 132.619C175.607 132.619 189.058 110.329 217.973 118.489C196.076 103.151 176.889 123.632 175.607 132.619Z" fill="#2E3192"/>
</svg>
