<svg width="167" height="148" viewBox="0 0 167 148" fill="none" xmlns="http://www.w3.org/2000/svg">
<path d="M83.7858 129.199C113.846 129.199 138.214 104.831 138.214 74.7706C138.214 44.7107 113.846 20.3423 83.7858 20.3423C53.7258 20.3423 29.3574 44.7107 29.3574 74.7706C29.3574 104.831 53.7258 129.199 83.7858 129.199Z" fill="#597FEB"/>
<path d="M137.358 33.0074L127.513 42.3549L107.711 61.1513C107.286 61.5544 107.028 62.1029 106.988 62.6877C106.949 63.2725 107.131 63.8508 107.498 64.3075L122.68 83.2775C123.055 83.7461 123.235 84.3407 123.184 84.9385C123.133 85.5363 122.854 86.0916 122.405 86.4898L75.1759 128.53L54.5346 146.891C52.6192 148.591 49.7578 146.433 50.8683 144.13L60.5541 124.008L67.9934 108.547C68.2446 108.021 68.2912 107.42 68.1241 106.861C67.9569 106.302 67.588 105.825 67.089 105.523L41.4683 90.185C41.1807 90.0113 40.9337 89.778 40.7439 89.5007C40.5541 89.2235 40.4259 88.9088 40.368 88.5778C40.31 88.2468 40.3237 87.9073 40.4081 87.5821C40.4924 87.2568 40.6455 86.9534 40.857 86.6924L94.2146 21.3429L110.837 0.983805C111.058 0.713937 111.337 0.496804 111.653 0.348174C111.969 0.199543 112.314 0.123145 112.663 0.12453C113.013 0.125916 113.357 0.205049 113.672 0.356183C113.987 0.507317 114.264 0.726657 114.483 0.998275L137.573 29.8457C137.938 30.3047 138.118 30.8834 138.078 31.4683C138.039 32.0532 137.782 32.6021 137.358 33.0074Z" fill="#F6F7FF"/>
<path d="M52.9993 147.625C52.453 147.621 51.9226 147.441 51.4872 147.111C51.0271 146.775 50.7008 146.287 50.5661 145.733C50.4313 145.179 50.4968 144.596 50.751 144.085L60.3843 124.063C51.0603 119.635 43.1836 112.654 37.6691 103.929C32.1546 95.2034 29.2285 85.0929 29.2307 74.7712C29.2307 44.6883 53.7028 20.2144 83.7857 20.2144C87.2712 20.2154 90.7488 20.5479 94.1714 21.2074L110.747 0.904376C110.979 0.620762 111.271 0.392429 111.602 0.235988C111.934 0.0795473 112.296 -0.00106656 112.662 1.06551e-05H112.675C113.042 0.00170568 113.403 0.085233 113.734 0.244502C114.064 0.403772 114.355 0.634768 114.585 0.920654L137.671 29.7735C138.055 30.2579 138.244 30.8674 138.202 31.4836C138.161 32.0997 137.892 32.6784 137.447 33.107L127.68 42.3786C134.634 51.7464 138.374 63.1114 138.341 74.7784C138.341 104.854 113.861 129.326 83.7857 129.326C80.9172 129.325 78.0531 129.101 75.2195 128.655L54.6163 146.979C54.1774 147.39 53.6002 147.62 52.9993 147.625ZM83.7857 20.4712C53.8439 20.4712 29.4839 44.8312 29.4839 74.773C29.4839 95.6729 41.7019 114.952 60.6086 123.889L60.7243 123.945L60.6683 124.059L50.9807 144.187C50.7571 144.648 50.7007 145.172 50.821 145.671C50.9413 146.169 51.2309 146.61 51.6403 146.918C52.0498 147.227 52.5536 147.383 53.0657 147.362C53.5778 147.34 54.0664 147.141 54.448 146.798L75.1363 128.387H75.1996C78.0393 128.84 80.9101 129.069 83.7857 129.073C113.727 129.073 138.086 104.713 138.086 74.7712C138.118 63.1212 134.372 51.7749 127.409 42.4347L127.349 42.3533L127.416 42.2737L137.272 32.9171C137.67 32.5327 137.912 32.0138 137.949 31.4612C137.987 30.9087 137.817 30.362 137.474 29.9273L114.391 1.07982C114.185 0.822196 113.923 0.614064 113.626 0.470712C113.329 0.327361 113.003 0.252431 112.673 0.251424H112.662C112.333 0.250687 112.008 0.323375 111.711 0.464185C111.414 0.604995 111.152 0.810377 110.944 1.06535L94.2727 21.4841L94.1967 21.4715C90.7664 20.8053 87.2801 20.4697 83.7857 20.4694V20.4712Z" fill="#2E3192"/>
<path d="M166.872 86.0248C166.872 129.208 113.604 105.438 93.0103 84.8382C120.192 97.7815 144.492 93.7083 144.492 60.1689L166.872 86.0248Z" fill="#2E3192"/>
<path d="M145.825 110.332C128.546 110.332 105.114 97.116 92.9216 84.9197L92.3989 84.397L93.0663 84.7153C109.52 92.5453 123.628 93.6667 132.799 87.8752C140.473 83.0296 144.366 73.7074 144.366 60.169V59.8271L167 85.9688V86.0248C167 97.8214 163.064 105.433 155.305 108.645C152.483 109.804 149.276 110.332 145.825 110.332ZM93.6289 85.2615C108.41 99.7025 138.563 115.296 155.207 108.401C162.853 105.235 166.734 97.7201 166.745 86.0628L144.619 60.509C144.554 73.957 140.623 83.2358 132.934 88.0904C123.809 93.8512 109.882 92.8437 93.6289 85.2615Z" fill="#FBB03B"/>
<path d="M93.0102 84.8295C80.5372 78.8987 29.692 57.8089 29.692 96.371L0.699829 55.2459C0.699829 8.19356 76.0588 67.8763 93.0102 84.8295Z" fill="#FBB03B"/>
<path d="M29.8203 96.7723L29.5888 96.445L0.57135 55.2855V55.2457C0.57135 46.354 3.28445 40.7198 8.64914 38.4987C19.4238 34.0365 38.8694 44.1636 53.2832 53.4496C70.8586 64.7687 86.7248 78.3631 93.1006 84.7407L93.6233 85.2616L92.9559 84.9396C86.5982 81.9154 54.0809 67.3353 38.3485 77.276C32.689 80.8501 29.8203 87.2747 29.8203 96.3654V96.7723ZM0.82638 55.2059L29.5744 95.9729C29.6576 86.998 32.566 80.6385 38.2201 77.0662C53.5726 67.366 84.6774 80.794 92.4006 84.3988C79.3597 71.6201 28.6139 30.5095 8.75405 38.7338C3.49969 40.9079 0.833615 46.4498 0.82638 55.2059Z" fill="#2E3192"/>
<path d="M41.6476 69.8694C36.3264 69.8694 30.1423 66.7945 26.9553 62.374C24.8174 59.4095 24.2639 56.3274 25.4414 53.9181C26.5954 51.5541 29.1909 50.1777 32.7487 50.0456C39.4066 49.7997 46.9888 54.3595 49.3167 60.0099C50.2518 62.2799 50.1975 64.5119 49.1629 66.2917C48.0596 68.189 45.9615 69.4244 43.2574 69.7699C42.7235 69.8371 42.1858 69.8703 41.6476 69.8694ZM33.2823 51.0585C33.1159 51.0585 32.9513 51.0585 32.7867 51.0676C29.6214 51.187 27.337 52.359 26.3566 54.3703C25.3492 56.4323 25.8701 59.1345 27.7819 61.7861C31.0955 66.3767 37.8348 69.4461 43.129 68.7678C45.5111 68.464 47.3415 67.4059 48.2821 65.787C49.1539 64.2876 49.1864 62.3758 48.3743 60.4043C46.2509 55.2421 39.4265 51.0531 33.2823 51.0531V51.0585Z" fill="#F6F7FF"/>
<path d="M43.2573 59.9486L42.7382 58.8832L41.3256 58.9936L39.913 56.1973L38.6468 56.2787L40.1137 59.0876L37.4766 59.2956L34.6604 56.5427L32.0486 56.7128L33.8067 59.5868L32.2711 59.708L32.9692 60.8131L34.4777 60.6865L35.5015 62.3632L34.0364 62.4989L34.6839 63.5226L36.1309 63.3834L37.4712 65.5864L38.6269 65.4616L37.3247 63.2658L39.96 63.0108L42.1305 65.0872L44.3009 64.8539L43.2157 62.6979L44.5487 62.5694L44.0441 61.5764L42.6912 61.7012L41.8628 60.0734L43.2573 59.9486ZM33.8211 57.3567L34.0436 57.3404L36.1888 59.3969L35.0836 59.4837L33.8211 57.3567ZM36.7151 62.2402L35.7239 60.578L37.2794 60.4478L38.9453 62.0431L36.7151 62.2402ZM42.8775 64.3709L42.6966 64.389L41.1537 62.8823L42.0473 62.7955L42.8775 64.3709ZM41.5336 61.7971L40.1752 61.9219L38.5474 60.332L40.6744 60.1512L41.5336 61.7971Z" fill="#F6F7FF"/>
<path d="M149.567 100.983C149.484 100.983 149.403 100.983 149.32 100.983C146.887 100.914 144.534 99.8003 142.692 97.8468C139.632 94.5911 140.019 90.9592 143.879 86.7195C147.48 82.7638 151.078 82.2502 154.569 85.193C156.725 87.0017 158.058 89.7148 158.135 92.4279C158.179 93.5488 157.983 94.6661 157.56 95.705C157.137 96.7438 156.496 97.6801 155.681 98.4509C153.919 100.108 151.81 100.983 149.567 100.983ZM150.036 84.3175C148.278 84.3175 146.505 85.3413 144.628 87.4014C141.101 91.2775 140.732 94.2746 143.43 97.145C145.084 98.8995 147.184 99.9015 149.345 99.963C151.401 100.021 153.353 99.2396 154.977 97.7021C155.69 97.0332 156.25 96.2182 156.619 95.313C156.988 94.4077 157.157 93.4335 157.115 92.4568C157.045 90.0331 155.849 87.6112 153.908 85.9779C152.61 84.8692 151.329 84.3175 150.036 84.3175Z" fill="#F6F7FF"/>
<path d="M152.026 90.5465C151.786 90.493 151.536 90.5042 151.302 90.5791C151.099 90.6406 150.904 90.8902 150.759 90.8685C150.615 90.8468 150.665 90.8866 150.626 90.7437C150.586 90.6008 150.75 90.3241 150.767 90.098C150.791 89.837 150.763 89.5738 150.683 89.3238C150.572 89.0328 150.397 88.7706 150.17 88.5569L150.108 88.4991C149.869 88.2675 149.56 88.1202 149.229 88.0794C148.899 88.063 148.571 88.1469 148.289 88.32C148.152 88.408 148.021 88.5059 147.898 88.613C147.67 88.396 147.443 88.1777 147.218 87.9583C147.037 88.2079 146.856 88.4647 146.663 88.6998C146.86 88.897 147.057 89.0959 147.256 89.2913C146.998 89.571 146.739 89.8508 146.478 90.1305C146.281 89.9298 146.086 89.729 145.889 89.53C145.655 89.7453 145.418 89.9515 145.176 90.1559C145.375 90.3621 145.575 90.567 145.776 90.7708C145.348 91.1326 144.923 91.478 144.483 91.8199L145.038 92.3824C145.331 92.1509 145.615 91.9103 145.899 91.6589C147.316 93.083 148.732 94.5077 150.148 95.933C149.864 96.1898 149.58 96.4448 149.289 96.6926L149.9 97.3166C150.331 96.9549 150.754 96.5642 151.166 96.1735L151.87 96.8807C152.111 96.6546 152.355 96.4322 152.593 96.1988C152.352 95.9577 152.116 95.7165 151.884 95.4753C152.172 95.195 152.454 94.911 152.729 94.618C152.97 94.8531 153.205 95.0901 153.444 95.3288C153.677 95.0919 153.907 94.8531 154.127 94.6053C153.865 94.3431 153.597 94.0826 153.333 93.824C153.419 93.6654 153.491 93.4996 153.548 93.3284C153.656 92.9322 153.656 92.5145 153.548 92.1183C153.432 91.7181 153.21 91.3565 152.906 91.0711C152.886 91.0494 152.838 91.0078 152.821 90.9915C152.595 90.7819 152.322 90.6293 152.026 90.5465ZM147.865 89.738C148.2 89.3944 148.408 89.2099 148.784 89.105C149.161 89.0001 149.37 89.1665 149.654 89.3636C149.682 89.384 149.707 89.4083 149.728 89.436C149.965 89.7326 150.128 89.9533 150.103 90.3711C150.078 90.7889 149.94 91.062 149.625 91.4563C149.238 91.9262 148.819 92.3686 148.37 92.7803C147.785 92.21 147.208 91.6342 146.637 91.053C147.015 90.6768 147.529 90.0871 147.865 89.7453V89.738ZM152.239 91.8127C152.494 92.131 152.697 92.3553 152.678 92.8147C152.66 93.2741 152.489 93.5689 152.136 93.9596C151.783 94.3503 151.255 94.8785 150.857 95.2782C150.217 94.6433 149.58 94.0121 148.945 93.3664C149.391 92.9621 149.814 92.5327 150.211 92.0804C150.539 91.7059 150.799 91.4998 151.217 91.4184C151.635 91.337 151.857 91.5233 152.165 91.7439C152.192 91.7638 152.217 91.7869 152.239 91.8127Z" fill="#F6F7FF"/>
<path d="M103.913 115.92L98.3134 101.683L98.4327 101.636L104.031 115.873L103.913 115.92Z" fill="#2E3192"/>
<path d="M53.9272 94.1551L53.8801 94.0376L68.1148 88.4377L68.1619 88.5553L53.9272 94.1551Z" fill="#2E3192"/>
<path d="M76.7533 119.472C74.3043 116.759 74.6986 112.668 75.887 109.746C76.6719 107.813 77.8259 106.03 78.9401 104.306C79.6509 103.206 80.3871 102.068 81.0183 100.904C82.1596 98.8019 83.849 94.7412 82.3387 91.1636L82.4563 91.1147C83.9883 94.7413 82.2754 98.8435 81.1305 100.963C80.4938 102.134 79.7577 103.273 79.0468 104.375C77.9344 106.095 76.7859 107.873 76.0045 109.801C74.8325 112.695 74.4382 116.723 76.8492 119.387L76.7533 119.472Z" fill="#2E3192"/>
<path d="M113.234 74.0513L113.188 73.9319L127.447 68.3936L127.494 68.5129L113.234 74.0513Z" fill="#2E3192"/>
<path d="M82.9735 60.7226L77.4352 46.4626L77.5528 46.4155L83.0929 60.6755L82.9735 60.7226Z" fill="#2E3192"/>
<path d="M97.9444 69.9851L97.8721 69.882C101.03 67.6248 101.717 63.2802 101.851 60.8926C101.922 59.5687 101.891 58.2157 101.851 56.9134C101.806 54.8605 101.757 52.7389 102.101 50.6787C102.618 47.5677 104.422 43.8761 107.93 42.8469L107.967 42.9699C104.514 43.9828 102.738 47.6274 102.226 50.7004C101.884 52.7479 101.933 54.8605 101.98 56.9116C102.009 58.223 102.039 59.5777 101.969 60.9071C101.849 63.3109 101.153 67.6971 97.9444 69.9851Z" fill="#2E3192"/>
</svg>
