<svg width="482" height="477" viewBox="0 0 482 477" fill="none" xmlns="http://www.w3.org/2000/svg">
<path d="M254.149 437.656C257.969 439.864 261.857 439.985 265.815 438.018L264.074 434.452C260.401 438.66 258.27 438.48 254.149 437.656Z" fill="#FC573B"/>
<path d="M201.357 314.604C205.496 313.057 209.352 313.581 212.925 316.176L210.603 319.397C207.688 314.638 205.555 314.463 201.357 314.604Z" fill="#FC573B"/>
<path d="M310.078 381.115C305.915 382.591 302.069 382.001 298.541 379.345L300.917 376.166C303.75 380.973 305.88 381.184 310.078 381.115Z" fill="#DD4C34"/>
<path d="M192.775 405.692C191.752 406.137 190.625 406.281 189.524 406.108C188.423 405.935 187.395 405.451 186.559 404.714L186.986 401.991C188.475 404.792 190.505 405.748 192.775 405.692Z" fill="#FC573B"/>
<path d="M359.088 399.22C358.283 394.868 355.989 390.935 352.599 388.097C349.231 385.202 345.043 383.38 340.686 382.514C336.239 381.625 331.644 381.634 327.14 382.005C322.122 382.423 317.145 383.238 312.254 384.442C307.436 385.627 302.718 387.193 298.146 389.126C293.563 391.101 289.122 393.39 284.854 395.979C280.793 398.401 277.084 400.729 272.559 401.945C270.618 402.479 268.6 402.668 266.595 402.504C265.622 402.396 264.649 402.295 263.679 402.17C258.296 401.473 252.961 400.393 247.618 399.448L244.053 398.818C243.595 398.718 243.117 398.805 242.723 399.058C242.329 399.312 242.052 399.712 241.952 400.169C241.852 400.627 241.938 401.106 242.191 401.5C242.443 401.894 242.842 402.171 243.299 402.271C249.316 403.331 255.317 404.524 261.361 405.404C263.781 405.758 266.297 406.168 268.741 406.082C273.483 405.911 277.914 403.947 282.016 401.696C286.176 399.414 290.144 396.816 294.395 394.697C296.394 393.7 298.709 392.671 300.946 391.776C303.216 390.868 305.52 390.049 307.856 389.321C312.442 387.886 317.134 386.82 321.887 386.133C326.391 385.49 330.985 385.09 335.532 385.376L335.901 385.4C335.961 385.405 336.348 385.434 336.09 385.413C336.336 385.434 336.581 385.455 336.826 385.484C337.381 385.54 337.929 385.611 338.471 385.697C339.561 385.863 340.641 386.087 341.707 386.366C343.668 386.859 345.551 387.625 347.3 388.64C348.106 389.086 348.87 389.604 349.583 390.188C350.394 390.828 351.155 391.529 351.861 392.284C351.9 392.326 352.335 392.816 352.131 392.577C352.297 392.772 352.459 392.97 352.618 393.172C352.949 393.601 353.261 394.036 353.552 394.479C353.797 394.858 354.027 395.247 354.24 395.644C354.295 395.744 354.346 395.844 354.397 395.944C354.653 396.416 354.32 395.754 354.452 396.05C354.569 396.306 354.683 396.563 354.786 396.825C354.964 397.269 355.123 397.723 355.258 398.182C355.32 398.4 355.379 398.618 355.434 398.838C355.467 398.976 355.498 399.115 355.528 399.255C355.544 399.334 355.612 399.701 355.555 399.377C355.714 400.282 356.363 401.155 357.397 401.061C358.247 400.985 359.252 400.186 359.082 399.214L359.088 399.22Z" fill="#DD4C34"/>
<path d="M164.043 401.378C163.405 396.031 165.136 391.606 169.236 388.104L174.554 390.181C168.094 392.294 165.097 396.356 164.043 401.378Z" fill="#FC573B"/>
<path d="M194.905 273.552L206.825 315.39L209.833 317.689L226.554 356.796C226.554 356.796 215.826 378.395 216.274 384.069C203.587 380.458 173.277 381.424 167.46 389.894C167.239 395.492 177.542 423.121 191.142 436.173C190.855 436.245 198.871 432.949 198.871 432.949C198.871 432.949 186.152 407.254 187.522 399.287C187.45 399 209.001 405.657 209.001 405.657C209.001 405.657 227.584 422.198 247.299 415.737C252.251 416.241 268.559 425.454 269.54 428.413L247.871 452.384C247.871 452.384 250.313 455.914 252.178 456.064C251.893 456.136 285.733 434.36 288.749 429.339C290.906 424.53 270.147 402.285 252.813 395.04C252.383 394.541 254.397 381.057 255.453 378.753C256.51 376.449 262.663 368.486 262.663 368.486C275.359 374.091 301.554 383.898 305.65 380.892C308.589 379.24 328.684 355.911 332.996 347.513L324.761 346.223L302.155 368.055C291.281 363.598 287.287 361.969 273.772 354.618C260.257 347.266 239.626 337.064 239.626 337.064C239.626 337.064 201.988 284.897 201.79 271.836C201.429 271.612 194.905 273.552 194.905 273.552Z" fill="#FC573B"/>
<path opacity="0.12" d="M188.223 405.72C188.948 406.021 189.725 406.173 190.51 406.168C191.294 406.163 192.07 406.001 192.791 405.69C191.795 405.739 190.803 405.529 189.913 405.08C189.023 404.631 188.264 403.959 187.711 403.129C187.613 402.499 187.543 401.893 187.511 401.336C183.996 400.725 171.634 396.438 168.543 395.361C171.435 405.654 180.259 425.633 191.219 436.158C191.452 436.019 198.308 431.563 198.308 431.563C198.308 431.563 190.755 416.372 188.223 405.72Z" fill="black"/>
<path opacity="0.12" d="M267.715 430.534L264.108 434.525L264.076 434.457C260.403 438.665 258.271 438.487 254.149 437.662C255.835 438.676 257.74 439.269 259.703 439.394L247.918 452.423C247.918 452.423 250.359 455.965 252.223 456.106C252.205 456.034 270.102 444.49 280.929 436.315C277.276 435.047 267.715 430.534 267.715 430.534Z" fill="black"/>
<path d="M203.879 436.03C181.58 446.809 183.273 454.446 181.04 457.007C178.806 459.568 179.478 452.968 177.897 453.436C176.315 453.904 176.638 456.763 175.267 456.531C173.896 456.299 173.861 450.548 176.063 447.368C178.264 444.188 190.443 435.963 198.316 431.578C198.316 431.578 204.63 434.853 203.879 436.03Z" fill="#EFBF94"/>
<path d="M247.944 452.426C247.944 452.426 240.595 454.079 238.106 455.457C235.617 456.834 234.877 459.455 235.977 459.947C237.077 460.439 238.59 458.693 242.12 459.096C245.651 459.5 253.803 466.673 254.898 469.205C255.993 471.736 253.799 475.17 255.259 475.378C256.719 475.585 258.652 471.757 258.652 471.757C259.871 472.999 260.706 474.567 261.055 476.274C261.821 477.332 263.783 474.631 263.291 471.506C262.8 468.381 261.085 463.415 255.096 458.586C255.072 458.491 247.944 452.426 247.944 452.426Z" fill="#EFBF94"/>
<path d="M236.773 349.717C225.471 355.941 213.891 381.581 218.889 394.745C223.887 407.909 241.034 412.561 250.015 397.541C254.285 388.913 250.437 388.486 253.99 379.426C257.542 370.365 264.152 364.866 264.471 364.078C265.066 362.593 265.488 359.354 264.592 357.808C263.696 356.263 261.117 354.34 258.951 353.625C256.785 352.91 252.363 353.859 250.906 353.177C249.45 352.496 247.367 349.449 245.617 348.455C243.867 347.461 236.773 349.717 236.773 349.717Z" fill="#EFBF94"/>
<path opacity="0.12" d="M319.529 365.85C313.343 373.3 307.159 380.042 305.631 380.902C301.547 383.904 275.347 374.101 262.647 368.493C262.647 368.493 261.175 370.403 259.55 372.617C258.808 372.803 257.748 372.373 257.273 372.985C250.83 381.23 242.301 384.419 234.164 365.562C232.579 361.889 229.059 321.895 229.71 322.863C235.354 331.169 239.612 337.078 239.612 337.078C239.612 337.078 260.236 347.281 273.751 354.629C287.266 361.977 291.255 363.596 302.131 368.065L315.194 355.452C315.194 355.452 317.673 361.168 319.529 365.85Z" fill="black"/>
<path d="M234.739 389.044C234.896 388.382 234.705 387.769 234.312 387.676C233.918 387.582 233.472 388.043 233.314 388.705C233.157 389.367 233.348 389.98 233.742 390.073C234.135 390.167 234.582 389.706 234.739 389.044Z" fill="#603813"/>
<path d="M252.192 306.61C254.367 300.98 252.233 294.906 247.425 293.045C242.617 291.184 236.956 294.239 234.78 299.87C232.605 305.5 234.739 311.574 239.547 313.435C244.355 315.296 250.017 312.241 252.192 306.61Z" fill="#FC573B"/>
<path d="M251.319 306.275C252.842 302.333 251.088 297.98 247.402 296.553C243.716 295.126 239.494 297.165 237.971 301.107C236.448 305.05 238.201 309.402 241.887 310.829C245.573 312.256 249.796 310.217 251.319 306.275Z" fill="#597FEB"/>
<path d="M298.248 324.474C300.424 318.843 298.289 312.77 293.481 310.908C288.673 309.047 283.012 312.102 280.837 317.733C278.662 323.363 280.796 329.437 285.604 331.298C290.412 333.159 296.073 330.104 298.248 324.474Z" fill="#FC573B"/>
<path d="M295.055 323.239C296.578 319.296 294.825 314.944 291.139 313.517C287.453 312.09 283.23 314.129 281.707 318.071C280.184 322.013 281.937 326.366 285.623 327.793C289.309 329.22 293.532 327.181 295.055 323.239Z" fill="#597FEB"/>
<path d="M286.504 343.556C286.506 343.544 286.504 343.533 286.497 343.524C286.491 343.514 286.481 343.508 286.47 343.506C286.463 343.504 286.456 343.504 286.45 343.505C286.443 343.507 286.437 343.51 286.432 343.515C284.871 344.948 282.765 344.909 280.694 344.265C280.684 344.262 280.674 344.257 280.665 344.251C280.657 344.244 280.65 344.236 280.644 344.226C280.639 344.217 280.636 344.206 280.635 344.195C280.634 344.185 280.635 344.174 280.639 344.163C280.643 344.149 280.651 344.137 280.661 344.127C280.672 344.117 280.685 344.111 280.699 344.108C283.017 343.497 285.722 341.847 286.214 340.006C286.215 339.996 286.213 339.987 286.208 339.979C286.204 339.971 286.197 339.965 286.188 339.961C286.18 339.958 286.17 339.957 286.161 339.959C286.152 339.962 286.144 339.967 286.139 339.974C285.129 341.363 283.954 341.368 282.858 340.796C283.684 339.635 284.362 338.375 284.879 337.047C286.588 332.627 286.36 327.85 284.585 323.388C284.448 323.049 284.434 322.671 284.546 322.322C284.659 321.973 284.89 321.674 285.2 321.477C286.164 320.852 292.558 311.645 291.542 305.624C290.505 299.452 281.346 295.187 276.463 295.126C276.409 295.125 276.355 295.114 276.306 295.092C276.256 295.07 276.211 295.039 276.173 295C276.136 294.96 276.107 294.914 276.087 294.863C276.068 294.812 276.059 294.758 276.06 294.704C276.061 294.673 276.065 294.642 276.072 294.612C276.278 293.688 276.138 292.808 275.431 292.257C275.955 293.492 275.036 294.099 273.669 294.361C273.63 294.368 273.591 294.364 273.555 294.35C273.519 294.336 273.487 294.312 273.464 294.281C273.44 294.25 273.426 294.213 273.422 294.174C273.418 294.135 273.425 294.096 273.442 294.061C274.426 292.071 274.748 289.973 273.599 288.958C274.133 290.932 272.547 292.02 270.461 292.618C270.397 292.635 270.331 292.637 270.266 292.624C270.201 292.611 270.141 292.582 270.089 292.541C266.244 289.468 256.935 286.607 252.157 290.393C247.471 294.107 245.847 305.114 246.135 306.247C246.228 306.602 246.193 306.979 246.037 307.311C245.88 307.644 245.613 307.911 245.281 308.067C240.886 310.174 237.443 313.576 235.713 318.044C235.195 319.381 234.845 320.778 234.672 322.202C233.606 321.846 232.862 321.051 233.043 319.458C233.048 319.416 232.989 319.391 232.969 319.431C232.083 321.122 232.977 324.164 234.281 326.178C234.291 326.193 234.296 326.21 234.295 326.228C234.294 326.246 234.287 326.263 234.275 326.277C234.263 326.291 234.248 326.3 234.23 326.304C234.213 326.308 234.194 326.307 234.178 326.299C232.208 325.383 230.628 323.993 230.439 321.883C230.439 321.877 230.437 321.872 230.435 321.867C230.432 321.862 230.429 321.858 230.424 321.854C230.42 321.85 230.415 321.848 230.409 321.846C230.404 321.844 230.398 321.844 230.393 321.845C230.387 321.843 230.38 321.842 230.374 321.844C230.368 321.845 230.362 321.849 230.358 321.853C229.38 323.624 231.951 328.155 234.767 331.3C235.993 332.688 237.104 334.172 238.091 335.74C241.218 340.622 246.269 344.824 252.644 347.29C258.848 349.689 265.225 350.022 270.73 348.653C272.616 348.158 274.538 347.813 276.478 347.621C280.768 347.243 286.019 345.587 286.504 343.556Z" fill="#FC573B"/>
<path d="M280.142 323.812C280.036 323.52 280.028 323.201 280.121 322.904C280.215 322.607 280.403 322.349 280.658 322.171C285.595 318.712 287.967 313.002 286.033 308.441C283.802 303.194 276.706 301.459 270.181 304.568C269.874 304.718 269.519 304.74 269.195 304.628C268.872 304.517 268.606 304.282 268.457 303.974C268.452 303.948 268.441 303.925 268.424 303.905C265.6 297.257 259.135 293.86 253.983 296.314C249.536 298.431 247.528 304.22 248.879 310.039C248.949 310.342 248.916 310.659 248.788 310.943C248.659 311.226 248.44 311.459 248.166 311.605C244.529 313.446 241.699 316.57 240.224 320.372C236.645 329.811 242.696 340.853 253.752 345.029C264.808 349.206 276.66 344.954 280.236 335.506C281.632 331.725 281.598 327.565 280.142 323.812Z" fill="#EFBF94"/>
<path d="M261.78 310.225C262.526 308.294 261.9 306.253 260.381 305.665C258.862 305.077 257.026 306.165 256.28 308.096C255.534 310.027 256.161 312.069 257.68 312.657C259.198 313.244 261.034 312.156 261.78 310.225Z" fill="#603813"/>
<path d="M276.487 315.929C277.233 313.998 276.607 311.956 275.088 311.368C273.569 310.78 271.733 311.869 270.987 313.8C270.241 315.73 270.868 317.772 272.387 318.36C273.905 318.948 275.741 317.859 276.487 315.929Z" fill="#603813"/>
<path d="M261.661 320.217C261.868 319.681 261.516 319.045 260.874 318.797C260.233 318.549 259.545 318.782 259.338 319.318C259.131 319.854 259.483 320.489 260.124 320.738C260.766 320.986 261.454 320.753 261.661 320.217Z" fill="#603813"/>
<path d="M266.692 322.168C266.899 321.632 266.547 320.996 265.906 320.748C265.264 320.5 264.576 320.733 264.369 321.269C264.162 321.805 264.514 322.44 265.156 322.689C265.797 322.937 266.485 322.704 266.692 322.168Z" fill="#603813"/>
<path d="M261.515 336.128C261.515 336.128 262.763 338.481 268.451 337.382C262.637 340.273 261.12 338.935 261.515 336.128Z" fill="#603813"/>
<path d="M201.987 261.789C202.446 261.585 197.968 250.749 196.797 250.277C196.454 250.363 195.517 248.834 193.663 248.951C192.554 249.019 191.502 249.469 190.684 250.223C190.684 250.223 187.864 250.101 186.666 250.703C185.469 251.305 185.395 252.824 184.467 253.155C183.538 253.486 182.357 252.955 181.359 253.407C180.361 253.859 179.52 255.424 179.454 256.526C180.971 262.836 185.415 268.941 186.145 269.715C186.875 270.489 195.105 275.172 195.173 274.569L201.841 272.898C203.821 270.556 205.527 267.993 206.923 265.261C209.45 260.446 212.116 257.683 211.982 257.142C211.847 256.6 210.129 256.229 209.255 256.584C204.407 258.55 201.731 261.451 201.987 261.789Z" fill="#EFBF94"/>
<path opacity="0.09" d="M198.138 256.556C198.138 256.556 199.115 261.163 198.579 261.833C198.042 262.504 195.013 262.421 192.215 264.353C189.993 266.528 186.992 266.99 183.963 266.616L181.359 261.832L183.195 261.251C184.934 261.297 186.639 260.762 188.042 259.73C190.316 259.542 192.358 259.131 193.637 257.972C195.263 258.096 196.874 257.589 198.138 256.556Z" fill="black"/>
<path opacity="0.09" d="M201.91 261.136C201.91 261.136 197.477 265.515 198.21 266.959C199.225 265.434 202.669 261.159 205.232 259.29L202.011 261.635L201.91 261.136Z" fill="black"/>
<path d="M211.946 257.137L211.536 257.239L210.265 258.417C210.372 258.848 210.565 259.017 210.825 259.024C211.376 258.409 211.881 257.811 212.02 257.348L211.946 257.137Z" fill="#B47D4A"/>
<path d="M339.056 319.187C339.056 319.187 338.518 316.389 339.942 316.384C341.901 316.373 342.121 325.148 342.121 325.148" fill="#C69C6D"/>
<path d="M333.67 337.107C337.131 331.766 335.618 324.627 330.292 321.162C324.966 317.697 317.843 319.218 314.383 324.56C310.922 329.901 312.435 337.04 317.761 340.505C323.087 343.97 330.21 342.449 333.67 337.107Z" stroke="black" stroke-opacity="0.1" stroke-width="0.999732"/>
<path d="M331.185 324.117C332.51 325.531 333.386 327.307 333.703 329.221C334.02 331.134 333.763 333.1 332.965 334.868C332.166 336.636 330.862 338.127 329.218 339.152C327.574 340.178 325.664 340.691 323.73 340.627C321.795 340.563 319.924 339.926 318.352 338.794C316.78 337.663 315.579 336.09 314.901 334.273C314.223 332.456 314.098 330.478 314.543 328.589C314.987 326.701 315.98 324.986 317.397 323.663C319.29 321.897 321.803 320.954 324.387 321.039C326.97 321.124 329.414 322.231 331.185 324.117Z" fill="#F7931A"/>
<path d="M325.056 327.043C324.213 326.295 323.247 326.684 322.278 327.445L321.218 326.304L320.524 326.954L321.556 328.065C321.374 328.236 321.19 328.414 321.008 328.591L319.97 327.473L319.276 328.123L320.335 329.264C320.188 329.408 320.043 329.549 319.899 329.684L319.895 329.681L318.937 330.578L319.625 331.319C319.625 331.319 320.13 330.829 320.129 330.846C320.211 330.746 320.329 330.683 320.456 330.67C320.584 330.657 320.712 330.694 320.812 330.775L322.019 332.075C322.044 332.052 322.07 332.031 322.097 332.012L322.024 332.08L323.714 333.904C323.742 333.938 323.763 333.978 323.776 334.02C323.789 334.062 323.793 334.107 323.789 334.151C323.784 334.195 323.771 334.238 323.75 334.277C323.729 334.316 323.701 334.351 323.667 334.379C323.683 334.378 323.162 334.851 323.162 334.851L323.795 335.808L324.699 334.962C324.867 334.805 325.035 334.653 325.198 334.502L326.271 335.656L326.965 335.006L325.904 333.864C326.098 333.69 326.284 333.519 326.463 333.35L327.519 334.487L328.213 333.836L327.144 332.684C328.249 331.524 328.793 330.464 327.875 329.274C327.137 328.314 326.356 328.309 325.545 328.771C325.665 328.469 325.682 328.136 325.593 327.824C325.504 327.512 325.315 327.238 325.055 327.045L325.056 327.043ZM326.376 330.421C327.177 331.283 325.61 332.568 325.14 333.009L323.718 331.479C324.19 331.039 325.538 329.523 326.374 330.42L326.376 330.421ZM324.049 328.567C324.778 329.352 323.461 330.413 323.07 330.781L321.782 329.394C322.175 329.028 323.289 327.749 324.049 328.567Z" fill="white"/>
<path opacity="0.09" d="M339.056 319.187C339.056 319.187 338.518 316.389 339.942 316.384C341.901 316.373 342.121 325.148 342.121 325.148" fill="black"/>
<path d="M332.936 347.56C334.052 348.165 343.576 330.653 342.134 325.143C340.691 319.634 336.875 314.425 334.759 315.823C332.643 317.22 337.345 321.848 336.909 326.578C336.77 328.054 336.434 328.918 336.297 329.91C336.104 331.299 336.067 329.202 335.368 326.934C334.27 323.394 326.143 321.272 324.382 323.621C322.62 325.97 328.438 326.248 330.657 329.045C331.522 330.5 331.373 332.188 331.205 333.651C330.66 338.468 325.843 342.055 321.914 337.012C320.314 334.956 320.23 333.311 314.701 331.287C311.197 330.656 318.566 345.398 323.698 347.016C329.129 348.721 332.936 347.56 332.936 347.56Z" fill="#EFBF94"/>
<path opacity="0.03" d="M342.136 325.156C343.561 330.589 334.315 347.688 332.981 347.589C336.857 343.46 337.504 337.35 337.331 335.854C337.045 333.99 336.65 332.145 336.147 330.328C336.219 330.2 336.27 330.062 336.296 329.918C336.432 328.929 336.764 328.056 336.909 326.589C337.352 321.86 332.64 317.227 334.756 315.832C336.872 314.436 340.689 319.631 342.136 325.156Z" fill="black"/>
<path d="M313.813 332.209L314.812 332.546L315.919 334.548L314.698 335.647C314.194 334.566 313.894 333.401 313.813 332.209Z" fill="#B47D4A"/>
<path d="M324.377 323.614L325.369 324.296L327.723 324.079C327.723 324.079 328.128 323.027 327.956 322.713C327.666 322.184 324.478 322.758 324.377 323.614Z" fill="#B47D4A"/>
<path d="M-63.1343 165.411C-63.1343 165.411 -20.6764 313.566 128.708 272.935C278.092 232.303 205.892 279.989 309.481 278.229C413.069 276.47 427.332 370.155 543.064 265.896" stroke="#59896C" stroke-width="4" stroke-linecap="round" stroke-linejoin="round"/>
<path opacity="0.197" d="M-61.9331 167.582C-61.9331 167.582 -19.4752 315.737 129.909 275.105C279.293 234.474 207.093 282.159 310.682 280.4C414.27 278.64 428.533 372.325 544.265 268.066" stroke="#59896C" stroke-width="4" stroke-linecap="round" stroke-linejoin="round"/>
<path d="M99.5989 283.532C100.712 284.169 100.769 284.288 100.769 284.288C99.7611 285.844 99.951 287.941 100.791 289.431C101.911 291.414 104.782 291.385 105.933 294.188C106.201 294.842 108.195 288.873 106.619 285.716C106.243 284.946 105.658 284.298 104.93 283.844C104.203 283.391 103.363 283.152 102.505 283.153C102.082 283.205 101.677 283.354 101.322 283.59C100.924 283.255 100.491 282.963 100.03 282.722C99.7104 282.554 99.2246 283.318 99.5989 283.532ZM101.762 284.167C103.334 285.38 104.37 287.292 104.973 288.709C104.984 288.733 104.986 288.76 104.977 288.785C104.968 288.81 104.95 288.83 104.927 288.842C104.904 288.853 104.876 288.855 104.852 288.847C104.827 288.839 104.806 288.822 104.794 288.798C103.903 287.211 102.727 285.801 101.327 284.639C101.41 284.434 101.564 284.266 101.762 284.166L101.762 284.167Z" fill="#59896C"/>
<path d="M99.7887 282.072C98.7564 283.503 98.5859 283.564 98.5859 283.564C96.608 281.969 93.7167 281.934 91.5585 282.871C88.6859 284.123 88.305 288.049 84.3075 289.227C83.3755 289.501 91.2362 293.064 95.7754 291.355C96.8824 290.949 97.8538 290.241 98.5793 289.311C99.3047 288.381 99.7548 287.267 99.8786 286.095C99.8707 285.51 99.7257 284.935 99.4552 284.416C99.9713 283.92 100.432 283.369 100.829 282.774C101.107 282.365 100.136 281.592 99.7887 282.072ZM98.6053 284.937C96.718 286.912 93.9551 288.06 91.9307 288.685C91.8975 288.695 91.8618 288.691 91.8308 288.676C91.7999 288.66 91.776 288.634 91.7639 288.601C91.7518 288.569 91.7524 288.533 91.7656 288.501C91.7788 288.469 91.8037 288.443 91.8351 288.429C94.1346 287.434 96.233 286.027 98.026 284.277C98.2927 284.42 98.4984 284.654 98.6053 284.937Z" fill="#59896C"/>
<path d="M100.16 282.738C100.16 282.738 101.499 280.812 101.293 279.031" stroke="#59896C" stroke-width="1.99946" stroke-linecap="round"/>
<path d="M233.895 254.478C234.178 254.464 234.457 254.411 234.725 254.318C234.651 253.774 234.721 253.22 234.929 252.712C235.137 252.203 235.476 251.759 235.911 251.425C236.993 250.562 238.601 251.228 239.888 249.912C240.187 249.605 239.948 253.421 238.342 254.84C237.955 255.189 237.478 255.422 236.965 255.512C236.453 255.602 235.926 255.547 235.444 255.351C235.218 255.226 235.024 255.05 234.878 254.836C234.578 254.935 234.268 255 233.953 255.032C233.736 255.055 233.636 254.514 233.895 254.478ZM235.257 254.612C236.339 254.243 237.314 253.615 238.098 252.781C238.108 252.77 238.113 252.756 238.113 252.741C238.113 252.726 238.108 252.712 238.098 252.7C238.088 252.689 238.075 252.682 238.06 252.68C238.045 252.678 238.03 252.682 238.018 252.691C237.155 253.383 236.172 253.911 235.119 254.247C235.12 254.382 235.169 254.511 235.257 254.612Z" fill="#59896C"/>
<path d="M233.666 255.334C233.607 254.949 233.493 254.574 233.329 254.22C231.851 254.671 230.214 254.034 229.213 253.014C227.881 251.656 228.563 249.355 226.581 247.783C226.119 247.416 231.359 247.192 233.526 249.188C234.057 249.668 234.442 250.288 234.639 250.977C234.835 251.666 234.834 252.397 234.636 253.086C234.498 253.414 234.285 253.705 234.014 253.935C234.192 254.333 234.325 254.748 234.413 255.174C234.476 255.468 233.752 255.684 233.666 255.334ZM233.654 253.449C233.043 251.907 231.748 250.632 230.75 249.82C230.734 249.805 230.712 249.797 230.69 249.798C230.668 249.799 230.648 249.809 230.633 249.825C230.618 249.841 230.61 249.863 230.611 249.885C230.612 249.907 230.621 249.928 230.638 249.943C231.706 251.026 232.566 252.296 233.177 253.69C233.36 253.67 233.529 253.585 233.654 253.449Z" fill="#59896C"/>
<path d="M234.035 255.044C234.035 255.044 234.349 256.433 233.827 257.39" stroke="#59896C" stroke-width="1.99946" stroke-linecap="round"/>
<path d="M309.442 274.546C309.159 274.533 308.879 274.48 308.611 274.388C308.687 273.844 308.617 273.29 308.41 272.782C308.202 272.275 307.864 271.832 307.429 271.498C306.347 270.637 304.734 271.307 303.45 269.991C303.15 269.687 303.384 273.499 304.989 274.913C305.376 275.262 305.854 275.494 306.367 275.583C306.88 275.673 307.408 275.616 307.892 275.42C308.118 275.295 308.313 275.119 308.459 274.905C308.759 275.003 309.07 275.068 309.384 275.099C309.599 275.122 309.701 274.582 309.442 274.546ZM308.079 274.682C306.996 274.315 306.02 273.689 305.237 272.857C305.226 272.846 305.221 272.832 305.221 272.817C305.22 272.801 305.226 272.787 305.236 272.776C305.246 272.764 305.26 272.757 305.275 272.755C305.29 272.754 305.305 272.758 305.317 272.767C306.18 273.457 307.163 273.983 308.217 274.318C308.216 274.452 308.167 274.581 308.079 274.682Z" fill="#59896C"/>
<path d="M309.67 275.418C309.73 275.032 309.843 274.656 310.008 274.302C311.484 274.751 313.119 274.111 314.121 273.089C315.453 271.728 314.775 269.425 316.759 267.848C317.22 267.481 311.986 267.263 309.819 269.265C309.288 269.747 308.903 270.368 308.706 271.059C308.509 271.749 308.508 272.48 308.705 273.17C308.843 273.497 309.055 273.787 309.324 274.017C309.146 274.415 309.012 274.831 308.924 275.258C308.862 275.554 309.584 275.769 309.67 275.418ZM309.685 273.53C310.299 271.988 311.592 270.708 312.59 269.893C312.606 269.878 312.627 269.87 312.649 269.871C312.671 269.872 312.692 269.882 312.707 269.898C312.722 269.914 312.73 269.936 312.729 269.958C312.728 269.98 312.718 270.001 312.702 270.016C311.634 271.102 310.772 272.375 310.161 273.772C309.978 273.752 309.809 273.667 309.684 273.531L309.685 273.53Z" fill="#59896C"/>
<path d="M309.305 275.121C309.305 275.121 308.987 276.511 309.508 277.467" stroke="#59896C" stroke-width="1.99946" stroke-linecap="round"/>
<path d="M399.442 306.459C399.056 306.477 398.674 306.55 398.308 306.675C398.412 307.417 398.317 308.173 398.034 308.865C397.751 309.557 397.289 310.162 396.696 310.617C395.22 311.791 393.02 310.878 391.269 312.672C390.86 313.088 391.179 307.888 393.369 305.958C393.897 305.483 394.548 305.167 395.248 305.045C395.948 304.922 396.668 304.999 397.328 305.267C397.637 305.438 397.902 305.678 398.101 305.969C398.511 305.836 398.934 305.747 399.363 305.705C399.657 305.673 399.796 306.411 399.442 306.459ZM397.583 306.274C396.106 306.774 394.775 307.629 393.706 308.763C393.692 308.778 393.684 308.798 393.684 308.818C393.684 308.839 393.691 308.859 393.705 308.874C393.719 308.89 393.738 308.899 393.758 308.902C393.778 308.904 393.799 308.899 393.816 308.887C394.993 307.945 396.334 307.227 397.771 306.77C397.77 306.588 397.703 306.411 397.583 306.274Z" fill="#59896C"/>
<path d="M399.751 305.27C399.833 305.797 399.988 306.309 400.213 306.793C402.226 306.18 404.457 307.053 405.822 308.447C407.64 310.304 406.715 313.444 409.421 315.596C410.05 316.097 402.911 316.394 399.955 313.662C399.231 313.005 398.705 312.158 398.436 311.216C398.168 310.275 398.167 309.277 398.435 308.337C398.623 307.89 398.913 307.495 399.28 307.181C399.038 306.638 398.855 306.071 398.734 305.488C398.65 305.085 399.634 304.792 399.751 305.27ZM399.772 307.845C400.609 309.949 402.374 311.695 403.734 312.806C403.756 312.826 403.786 312.837 403.816 312.836C403.846 312.835 403.874 312.821 403.894 312.799C403.915 312.777 403.925 312.747 403.924 312.717C403.923 312.687 403.909 312.659 403.887 312.638C402.43 311.157 401.255 309.421 400.422 307.515C400.172 307.542 399.941 307.659 399.772 307.844L399.772 307.845Z" fill="#59896C"/>
<path d="M399.256 305.674C399.256 305.674 398.823 303.778 399.533 302.475" stroke="#59896C" stroke-width="1.99946" stroke-linecap="round"/>
<path d="M61.6435 275.827C61.8937 275.788 62.1371 275.713 62.3666 275.606C62.2498 275.13 62.2608 274.632 62.3986 274.162C62.5363 273.692 62.7959 273.266 63.1509 272.929C64.0326 272.062 65.5248 272.502 66.5461 271.211C66.7838 270.91 66.9267 274.318 65.6311 275.73C65.3192 276.076 64.9167 276.327 64.4694 276.455C64.0222 276.584 63.5481 276.584 63.1012 276.456C62.8886 276.366 62.6999 276.228 62.5503 276.052C62.2924 276.168 62.0227 276.256 61.7459 276.313C61.5557 276.354 61.4164 275.883 61.6435 275.827ZM62.8662 275.817C63.7939 275.389 64.6028 274.739 65.2223 273.925C65.2296 273.915 65.2327 273.902 65.2311 273.889C65.2295 273.876 65.2233 273.864 65.2136 273.855C65.204 273.846 65.1915 273.841 65.1785 273.841C65.1655 273.841 65.1529 273.845 65.1428 273.854C64.4397 274.549 63.6152 275.11 62.7102 275.509C62.7232 275.627 62.7785 275.737 62.8658 275.818L62.8662 275.817Z" fill="#59896C"/>
<path d="M61.1795 275.892C61.2474 275.55 61.2668 275.2 61.237 274.852C59.8604 274.779 58.6827 273.745 58.1543 272.582C57.4511 271.033 58.7239 269.309 57.5414 267.383C57.2654 266.934 61.7269 268.346 62.9349 270.685C63.2337 271.25 63.368 271.889 63.3225 272.528C63.277 273.167 63.0535 273.781 62.6775 274.299C62.4618 274.532 62.1948 274.712 61.8978 274.823C61.9249 275.211 61.91 275.601 61.8532 275.985C61.8171 276.252 61.1438 276.212 61.1795 275.892ZM61.7437 274.305C61.7008 272.822 61.0049 271.355 60.4162 270.368C60.4063 270.352 60.3907 270.341 60.3727 270.336C60.3547 270.331 60.3355 270.333 60.319 270.342C60.3024 270.351 60.2897 270.365 60.2833 270.383C60.277 270.4 60.2774 270.42 60.2846 270.437C60.8499 271.673 61.1839 273.004 61.2703 274.362C61.4296 274.401 61.5978 274.38 61.7437 274.305Z" fill="#59896C"/>
<path d="M61.5804 275.758C61.5804 275.758 61.4205 277.02 60.6919 277.664" stroke="#59896C" stroke-width="1.99946" stroke-linecap="round"/>
<path opacity="0.12" d="M179.985 258.764C181.384 260.342 182.836 262.152 184.363 263.095C185.121 263.563 185.901 263.416 186.695 263.713L179.463 257.215L179.985 258.764Z" fill="black"/>
<path opacity="0.12" d="M197.324 250.946C198.035 252.662 198.089 253.907 197.776 254.89L196.305 251.239L195.76 249.332L197.324 250.946Z" fill="black"/>
<path d="M198.128 259.396C197.746 260.166 196.492 260.707 195.561 260.489C195.38 260.447 194.876 260.174 194.693 260.249C194.435 260.354 194.425 260.812 194.231 261.042C193.437 261.931 192.461 262.317 191.406 261.924C190.951 261.758 190.368 261.482 189.955 261.623C189.543 261.764 189.425 262.436 189.224 262.777C188.681 263.692 187.309 263.768 186.701 263.724C185.589 263.641 179.494 258.501 179.35 256.8C179.376 255.693 180.167 254.097 181.149 253.614C182.132 253.131 183.323 253.621 184.245 253.253C185.166 252.885 185.158 251.357 186.345 250.721C187.533 250.086 190.344 250.1 190.344 250.1C191.137 249.32 192.172 248.835 193.277 248.725C193.866 248.649 194.464 248.72 195.019 248.932C195.573 249.144 196.066 249.491 196.453 249.941C196.849 250.356 198.76 258.153 198.128 259.396Z" fill="#F4C59B"/>
<path opacity="0.12" d="M183.582 253.406C184.094 253.498 189.273 262.033 189.761 261.734C190.249 261.434 184.71 252.861 184.71 252.861C184.569 253.024 184.396 253.156 184.202 253.25C184.008 253.344 183.797 253.397 183.582 253.406Z" fill="black"/>
<path opacity="0.12" d="M189.693 250.106L194.511 260.435C194.616 260.255 194.741 260.186 194.899 260.253L190.602 249.844C190.504 249.916 190.415 249.999 190.337 250.092C190.24 250.184 189.948 250.065 189.693 250.106Z" fill="black"/>
<path d="M198.065 259.442C197.8 259.796 197.445 260.072 197.037 260.242C196.63 260.412 196.184 260.47 195.747 260.409L195.339 259.426C196.194 259.353 197.005 259.014 197.658 258.457L198.065 259.442Z" fill="#B47D4A"/>
<path d="M194.057 260.987C193.792 261.34 193.437 261.617 193.03 261.787C192.622 261.957 192.177 262.014 191.74 261.953L191.332 260.971C192.186 260.897 192.996 260.558 193.65 260.002L194.057 260.987Z" fill="#B47D4A"/>
<path d="M189.318 262.358C189.1 262.742 188.782 263.06 188.399 263.28C188.017 263.5 187.582 263.613 187.141 263.608L186.615 262.695C187.452 262.511 188.212 262.071 188.789 261.436L189.318 262.358Z" fill="#B47D4A"/>
</svg>
