<svg width="110" height="110" viewBox="0 0 110 110" fill="none" xmlns="http://www.w3.org/2000/svg">
<circle cx="55" cy="55" r="55" fill="#0C103A" fill-opacity="0.03"/>
<path d="M29.6701 64.7471C35.4449 63.513 38.9592 57.0509 37.5194 50.3137C36.0796 43.5764 30.2311 39.1151 24.4562 40.3492C18.6814 41.5833 15.1672 48.0454 16.6069 54.7827C18.0467 61.52 23.8953 65.9812 29.6701 64.7471Z" fill="#85879C"/>
<path d="M30.2816 60.7895C34.709 59.8433 37.4811 55.2532 36.4732 50.5371C35.4654 45.821 31.0593 42.7648 26.6319 43.7109C22.2046 44.6571 19.4325 49.2472 20.4403 53.9633C21.4482 58.6794 25.8543 61.7356 30.2816 60.7895Z" fill="#B6B7C4"/>
<path d="M84.9677 52.9308C90.7425 51.6967 94.2568 45.2346 92.817 38.4973C91.3772 31.76 85.5287 27.2988 79.7538 28.5329C73.979 29.767 70.4648 36.229 71.9045 42.9663C73.3443 49.7036 79.1929 54.1649 84.9677 52.9308Z" fill="#85879C"/>
<path d="M82.7911 49.5689C87.2185 48.6227 89.9906 44.0326 88.9827 39.3165C87.9749 34.6004 83.5688 31.5442 79.1414 32.4904C74.7141 33.4365 71.942 38.0266 72.9499 42.7427C73.9577 47.4588 78.3638 50.515 82.7911 49.5689Z" fill="#B6B7C4"/>
<path d="M93.5284 64.1139C93.5244 64.1043 93.5174 64.0962 93.5084 64.0908C93.4994 64.0854 93.4889 64.0831 93.4785 64.084C93.4681 64.085 93.4582 64.0893 93.4504 64.0962C93.4426 64.1032 93.4372 64.1124 93.435 64.1227C92.8379 66.4697 90.7958 67.752 88.4089 68.4324C88.389 68.438 88.3678 68.437 88.3486 68.4294C88.3293 68.4219 88.313 68.4083 88.3021 68.3907C88.2913 68.3731 88.2865 68.3524 88.2885 68.3318C88.2905 68.3112 88.2991 68.2918 88.3131 68.2766C90.1502 66.2425 91.708 62.9712 91.0235 60.9051C91.0192 60.895 91.0115 60.8866 91.0018 60.8815C90.9921 60.8763 90.9809 60.8747 90.9701 60.8768C90.9593 60.8789 90.9496 60.8847 90.9425 60.8932C90.9355 60.9017 90.9316 60.9123 90.9315 60.9234C90.8351 62.8831 89.7116 63.622 88.3023 63.7609C88.3644 62.1302 88.2235 60.4981 87.8827 58.9021C86.7516 53.6084 83.5371 49.1864 79.0327 46.0274C78.6888 45.7881 78.4395 45.4361 78.328 45.0323C78.2165 44.6285 78.2497 44.1985 78.4221 43.8167C78.9537 42.615 79.3031 29.8168 74.5583 24.6949C69.6947 19.4454 58.2473 21.1033 53.5322 24.103C53.4717 24.1405 53.4035 24.164 53.3327 24.1716C53.2619 24.1792 53.1903 24.1707 53.1232 24.1467C53.0562 24.1228 52.9954 24.084 52.9454 24.0333C52.8954 23.9826 52.8575 23.9213 52.8345 23.8539C52.456 22.8429 51.7665 22.0879 50.7436 22.0051C52.0294 22.8497 51.5129 24.0071 50.3747 25.1205C50.3426 25.1516 50.3024 25.1731 50.2587 25.1826C50.215 25.192 50.1695 25.1891 50.1273 25.174C50.0852 25.1589 50.0482 25.1323 50.0204 25.0973C49.9926 25.0622 49.9752 25.0201 49.9701 24.9756C49.6611 22.4528 48.6583 20.253 46.921 20C48.6694 21.5529 47.8338 23.5862 46.2112 25.4638C46.1613 25.5211 46.0984 25.5655 46.0277 25.5934C45.957 25.6213 45.8806 25.6319 45.805 25.6241C40.1952 25.0941 29.4842 28.1882 27.281 34.7976C25.1181 41.2817 30.464 52.8189 31.4498 53.7205C31.7611 54.0006 31.9645 54.3809 32.0249 54.7953C32.0852 55.2097 31.9985 55.6322 31.78 55.9894C28.8902 60.7517 27.7242 66.1607 28.8682 71.5132C29.2107 73.1164 29.7521 74.6705 30.4799 76.1394C29.2337 76.467 28.0263 76.168 27.199 74.5367C27.176 74.4914 27.1048 74.5057 27.1099 74.5565C27.3248 76.7238 30.0864 79.0762 32.5969 80.1828C32.6159 80.1911 32.6317 80.2053 32.6419 80.2233C32.652 80.2413 32.6561 80.2622 32.6534 80.2827C32.6507 80.3032 32.6414 80.3223 32.6268 80.337C32.6123 80.3518 32.5934 80.3614 32.5729 80.3644C30.1159 80.7192 27.7282 80.3843 26.2245 78.4851C26.2183 78.4766 26.2095 78.4704 26.1995 78.4672C26.1895 78.4641 26.1787 78.4642 26.1688 78.4675C26.1588 78.4709 26.1502 78.4773 26.1441 78.4859C26.1381 78.4945 26.1349 78.5047 26.135 78.5152C26.3168 80.8262 31.6117 83.5381 36.2828 84.7825C38.3263 85.3423 40.3216 86.0652 42.2496 86.9442C48.3108 89.6571 55.779 90.5076 63.4322 88.8721C70.8789 87.2809 77.2033 83.6127 81.6147 78.8528C83.1099 77.1979 84.7343 75.6645 86.4724 74.267C90.3412 71.2338 94.3317 66.3673 93.5284 64.1139Z" fill="#85879C"/>
<path d="M75.0542 49.2304C74.7687 49.0178 74.5614 48.7169 74.4645 48.3744C74.3676 48.0319 74.3866 47.667 74.5184 47.3363C77.0798 40.9407 75.7753 33.9953 71.0588 30.8507C65.6317 27.2323 57.7461 30.0173 53.4457 37.0731C53.3425 37.246 53.2051 37.3959 53.0419 37.5137C52.8787 37.6315 52.6931 37.7148 52.4965 37.7582C52.3 37.8017 52.0967 37.8045 51.899 37.7665C51.7013 37.7285 51.5135 37.6505 51.347 37.5373C44.4726 32.9535 36.1473 33.754 32.7529 39.3231C29.8219 44.1311 31.5258 50.9208 36.4689 55.6363C36.7262 55.8821 36.8951 56.206 36.9494 56.5577C37.0036 56.9093 36.9402 57.269 36.769 57.5809C34.4958 61.6668 33.6369 66.3172 34.6571 70.93C37.1478 82.1911 49.8714 88.9524 63.0755 86.0319C76.2797 83.1114 84.9646 71.6146 82.4737 60.3534C81.4643 55.7921 78.774 51.9705 75.0542 49.2304Z" fill="white"/>
<path d="M46.5537 52.6349C48.3774 52.2451 49.4556 50.0567 48.962 47.7467C48.4683 45.4368 46.5898 43.8802 44.7661 44.2699C42.9425 44.6596 41.8643 46.8481 42.3579 49.158C42.8516 51.4679 44.7301 53.0246 46.5537 52.6349Z" fill="#85879C"/>
<path d="M64.2119 48.8616C66.0356 48.4719 67.1138 46.2834 66.6202 43.9735C66.1265 41.6635 64.248 40.1069 62.4243 40.4966C60.6007 40.8863 59.5225 43.0748 60.0161 45.3848C60.5098 47.6947 62.3883 49.2513 64.2119 48.8616Z" fill="#85879C"/>
<path d="M53.9506 58.8284C54.7205 58.6639 55.2336 58.0103 55.0964 57.3686C54.9593 56.7269 54.224 56.3401 53.454 56.5047C52.684 56.6692 52.171 57.3228 52.3081 57.9645C52.4452 58.6062 53.1806 58.993 53.9506 58.8284Z" fill="#85879C"/>
<path d="M59.9921 57.5374C60.762 57.3729 61.2751 56.7193 61.1379 56.0776C61.0008 55.4359 60.2655 55.0491 59.4955 55.2137C58.7255 55.3782 58.2125 56.0318 58.3496 56.6735C58.4867 57.3151 59.2221 57.7019 59.9921 57.5374Z" fill="#85879C"/>
<path d="M67.3797 70.5866C66.596 67.4825 62.7734 65.7708 58.8416 66.7634C54.9098 67.756 52.3577 71.0771 53.1414 74.1812C53.925 77.2853 57.7477 78.997 61.6795 78.0044C65.6113 77.0118 68.1633 73.6907 67.3797 70.5866Z" fill="#85879C"/>
</svg>
